<?xml version="1.0" encoding="UTF-8" standalone="no"?>
<!-- Created with Inkscape (http://www.inkscape.org/) -->

<svg
   width="210mm"
   height="297mm"
   viewBox="0 0 210 297"
   version="1.1"
   id="svg1"
   xml:space="preserve"
   inkscape:version="1.4.2 (ebf0e94, 2025-05-08)"
   sodipodi:docname="incspace-two.svg"
   xmlns:inkscape="http://www.inkscape.org/namespaces/inkscape"
   xmlns:sodipodi="http://sodipodi.sourceforge.net/DTD/sodipodi-0.dtd"
   xmlns="http://www.w3.org/2000/svg"
   xmlns:svg="http://www.w3.org/2000/svg"><sodipodi:namedview
     id="namedview1"
     pagecolor="#505050"
     bordercolor="#eeeeee"
     borderopacity="1"
     inkscape:showpageshadow="0"
     inkscape:pageopacity="0"
     inkscape:pagecheckerboard="0"
     inkscape:deskcolor="#d1d1d1"
     inkscape:document-units="mm"
     inkscape:zoom="1.0066252"
     inkscape:cx="438.59421"
     inkscape:cy="370.04834"
     inkscape:window-width="1920"
     inkscape:window-height="1007"
     inkscape:window-x="0"
     inkscape:window-y="0"
     inkscape:window-maximized="1"
     inkscape:current-layer="layer1" /><defs
     id="defs1" /><g
     inkscape:label="Layer 1"
     inkscape:groupmode="layer"
     id="layer1"><g
       id="g9"
       transform="matrix(0.74275445,0,0,0.67114357,2.3084893,-24.845004)"><path
         style="fill:#a8cfa9"
         d="m 58.050139,115.66774 c -0.57987,-0.49878 -0.740448,-0.90091 -0.840229,-2.10413 l -0.123356,-1.48751 -2.030165,-1.33284 c -1.116591,-0.73307 -2.596766,-1.52591 -3.289278,-1.76187 -1.648753,-0.56179 -1.544873,-1.07324 0.417242,-2.0543 2.211347,-1.10567 4.926362,-1.44237 7.168696,-0.88902 1.920333,0.47389 1.806971,0.51241 3.708672,-1.26003 0.51686,-0.48173 0.524669,-0.5338 0.09254,-0.61702 -0.259579,-0.05 -0.833398,0.0351 -1.275155,0.1891 -0.454589,0.15847 -1.486703,0.20855 -2.378019,0.11539 -1.33177,-0.1392 -1.628674,-0.091 -1.923723,0.31254 -0.301362,0.41214 -0.609445,0.4553 -2.261294,0.31682 -4.475601,-0.37522 -7.153074,-3.72159 -6.353036,-7.940174 0.282285,-1.488482 1.842432,-4.558663 2.233848,-4.395942 0.28684,0.119246 0.28653,0.30179 -0.0049,2.903532 -0.238146,2.125737 0.266388,4.101904 1.461811,5.725644 0.912284,1.23916 2.464593,2.32197 3.022073,2.10804 0.200457,-0.0769 0.930733,0.0306 1.622834,0.23886 1.995279,0.60049 4.620645,0.50035 5.678803,-0.2166 1.312801,-0.88949 1.349566,-1.3424 0.08731,-1.07554 -3.174913,0.67123 -6.189353,-0.40683 -9.001886,-3.219363 -0.948405,-0.948405 -1.782339,-1.724372 -1.853188,-1.724372 -0.23059,0 0.230213,1.695728 0.728207,2.679755 0.267199,0.52798 1.043338,1.45072 1.724754,2.05052 0.681415,0.59981 1.124542,1.09056 0.984727,1.09056 -0.603378,0 -2.490188,-1.98082 -3.127384,-3.2832 -0.761956,-1.557381 -1.176583,-4.203768 -0.704359,-4.495619 0.17118,-0.105795 0.564955,0.367397 0.968594,1.163941 0.374082,0.738215 1.106141,1.813731 1.626798,2.390036 1.153278,1.276542 3.679945,2.850832 4.891008,3.047432 0.845154,0.13721 0.825111,0.1092 -0.392163,-0.54794 -0.93552,-0.50504 -1.250124,-0.81764 -1.162004,-1.15461 0.09244,-0.35348 -0.174013,-0.566795 -1.133697,-0.907645 -2.160093,-0.767197 -3.6917,-2.986154 -3.696026,-5.354718 -0.0023,-1.282487 1.242064,-3.447205 2.729789,-4.748631 1.306392,-1.1428 2.152634,-1.480017 2.339916,-0.932428 0.04851,0.141828 0.789582,-0.0963 1.646834,-0.529167 l 1.55864,-0.787036 h -0.953402 c -1.252128,0 -3.55056,0.874544 -4.935932,1.878103 -0.609356,0.441415 -1.473113,1.390046 -1.91946,2.108068 -1.226895,1.97366 -1.939968,1.676017 -1.509169,-0.62994 0.694087,-3.715266 3.279744,-5.705477 7.022197,-5.405069 0.968506,0.07774 2.140161,0.376907 2.777823,0.709274 0.606549,0.316152 1.276107,0.508324 1.487905,0.427049 0.490131,-0.188081 3.320945,0.539422 4.55418,1.170397 1.426041,0.729624 2.870194,2.271628 3.21956,3.437708 0.264185,0.881772 0.245174,1.145629 -0.123032,1.707582 -0.409703,0.625287 -0.403198,0.726628 0.109829,1.710891 0.783219,1.502639 0.376215,2.858964 -1.356413,4.520192 -2.289104,2.19477 -4.367004,2.72422 -3.688587,0.939843 0.155,-0.40768 0.248721,-0.758832 0.20827,-0.780338 -0.04045,-0.02151 -0.765209,0.665581 -1.610571,1.526855 -0.962001,0.98012 -1.333193,1.50339 -0.992188,1.39872 1.834293,-0.56308 1.703063,-0.59873 1.221791,0.33195 -0.815565,1.57713 -0.178041,1.66918 3.21895,0.46479 2.868892,-1.01716 6.969621,-1.7194 11.992694,-2.05374 14.701117,-0.978506 35.874862,3.13442 46.720182,9.07524 2.4355,1.3341 5.13742,3.45053 4.82172,3.77687 -0.0938,0.097 -1.52255,-0.50186 -3.175,-1.33072 -8.18637,-4.10621 -18.13366,-6.77933 -30.388836,-8.16635 -13.221758,-1.49641 -23.576792,-1.03561 -30.148324,1.3416 -1.951588,0.70597 -2.544019,1.1805 -2.292409,1.83618 0.162903,0.42452 0.217231,0.42016 0.763785,-0.0613 1.444174,-1.27212 3.335641,-1.46767 6.059224,-0.62644 2.768157,0.855 3.552379,2.06765 1.600854,2.47542 -0.396919,0.0829 -1.657158,0.7113 -2.800531,1.39636 -2.554189,1.53037 -4.265652,1.8294 -5.188518,0.90653 -0.32006,-0.32006 -0.610412,-0.54224 -0.645226,-0.49373 -0.03482,0.0485 -0.262063,0.62545 -0.504995,1.2821 -1.243553,3.36135 -4.768833,5.26556 -6.689556,3.61342 z m 3.76622,-0.46404 c 1.248514,-0.77163 2.398979,-2.40461 2.894174,-4.10802 0.342667,-1.17873 0.560457,-1.4681 1.456425,-1.93511 1.528104,-0.79649 1.793033,-0.67586 0.789531,0.35949 -0.993149,1.02467 -0.949113,1.62599 0.139074,1.89911 0.549742,0.13797 1.364688,-0.15228 3.649351,-1.29975 1.617851,-0.81256 3.166113,-1.54628 3.440582,-1.63048 1.241678,-0.38093 -1.252673,-1.72822 -3.977624,-2.14846 -1.398655,-0.2157 -2.901189,0.25963 -3.947141,1.24868 -0.940151,0.889 -1.173228,0.77684 -1.173228,-0.56459 0,-0.73957 0.141201,-1.04116 0.595312,-1.27153 4.176137,-2.1185 11.547987,-3.12985 20.968229,-2.87664 14.699676,0.39511 29.144796,3.22908 38.893746,7.63051 1.60073,0.72269 3.05925,1.3785 3.24115,1.45736 0.1819,0.0789 0.33073,0.0343 0.33073,-0.0991 0,-0.41255 -4.0723,-2.68988 -7.01361,-3.92218 -6.31551,-2.64596 -15.64854,-5.01367 -24.6041,-6.24183 -5.697775,-0.78139 -17.002306,-0.9813 -21.563541,-0.38133 -3.741719,0.49217 -6.780668,1.20856 -9.174124,2.16268 -1.064494,0.42435 -1.870925,0.59158 -2.315104,0.4801 -0.570283,-0.14313 -0.681605,-0.0804 -0.681605,0.38435 0,0.34313 -0.351722,0.78388 -0.920233,1.15316 -1.625828,1.05607 -1.520883,1.95019 0.196663,1.67554 l 1.062052,-0.16983 -0.136359,1.69876 c -0.15861,1.97594 -1.138367,4.01041 -2.512253,5.2167 -1.311987,1.15194 -2.161557,0.98981 -2.521677,-0.48124 -0.137247,-0.56064 -0.06431,-0.59531 1.252306,-0.59531 2.493732,0 2.435859,-1.0542 -0.180833,-3.29399 -1.429937,-1.22397 -0.694755,-1.23304 1.078433,-0.0133 1.635219,1.12483 1.952841,1.16128 1.729327,0.19843 -0.554182,-2.38727 -2.369322,-3.56452 -5.495927,-3.56452 -2.228302,0 -4.512587,0.58146 -5.578661,1.42003 l -0.733468,0.57695 1.551669,0.70837 c 1.518349,0.69316 4.955685,2.95321 5.273381,3.46725 0.08817,0.14266 0.03455,0.4109 -0.119143,0.59609 -0.405191,0.48822 0.120689,2.1741 0.839485,2.69124 0.73208,0.52669 1.9891,0.36215 3.267011,-0.42764 z m -0.750523,-1.35349 c 0.536526,-0.53653 0.358165,-0.71919 -0.616836,-0.6317 -1.054628,0.0946 -1.313915,0.25765 -1.060918,0.66701 0.235027,0.38028 1.284242,0.3582 1.677754,-0.0353 z m 1.42434,-2.65025 c -0.189855,-0.18985 -0.31309,-0.20547 -0.31309,-0.0397 0,0.35317 0.312899,0.66606 0.489479,0.48948 0.07519,-0.0752 -0.0042,-0.27759 -0.176389,-0.44979 z m 1.255814,-3.05153 c 0.01095,-0.35054 -0.138162,-0.59531 -0.362664,-0.59531 -0.611947,0 -0.753214,0.50034 -0.389315,1.37887 0.298404,0.72041 0.362218,0.75788 0.536055,0.31476 0.10853,-0.27665 0.205696,-0.77089 0.215924,-1.09832 z m -7.126132,-3.43958 c -5.38e-4,-0.10914 -0.767461,-0.59476 -1.704273,-1.07916 -2.896962,-1.49793 -3.906381,-3.2608 -4.116465,-7.189068 l -0.148574,-2.778125 -0.628568,1.322917 c -0.756097,1.59132 -1.015194,4.395801 -0.539327,5.837696 0.470911,1.42687 2.329826,3.1797 3.875909,3.65471 1.372726,0.42174 3.262899,0.55565 3.261298,0.23103 z m 5.583892,-3.01784 c 0.494658,-0.16822 1.316097,-0.63188 1.825419,-1.03034 0.986282,-0.771612 2.38125,-3.22744 2.38125,-4.192169 0,-0.492232 -0.211639,-0.365459 -1.389062,0.832058 -1.529675,1.555778 -3.20761,2.457796 -5.385695,2.895221 -0.785029,0.15765 -1.427326,0.3757 -1.427326,0.48455 0,0.26815 2.117618,1.24637 2.804789,1.29565 0.160186,0.0115 0.695967,-0.11675 1.190625,-0.28497 z m 5.863782,-2.062662 c 2.467728,-1.564987 3.43201,-3.82504 2.386883,-5.594299 -0.43013,-0.728151 -0.429248,-0.810196 0.01683,-1.565339 0.77981,-1.320113 -0.19724,-3.120106 -2.391683,-4.406136 -1.191906,-0.698503 -3.76031,-1.525226 -3.998493,-1.287042 -0.0654,0.0654 0.372554,0.705902 0.973228,1.423341 0.600674,0.71744 1.465539,2.102382 1.921922,3.07765 0.751374,1.605649 0.815185,1.93968 0.675261,3.534802 -0.08499,0.968874 -0.458527,2.528305 -0.830083,3.465403 -0.371557,0.937098 -0.675557,1.800302 -0.675557,1.918232 0,0.41395 0.701785,0.20703 1.921696,-0.566612 z m -7.235261,-0.66286 c 1.026829,-0.530994 1.824752,-1.384393 2.261105,-2.418308 0.461998,-1.09468 0.772161,-3.45252 0.478072,-3.634277 -0.129219,-0.07986 -0.550433,0.189057 -0.93603,0.597598 -0.995636,1.054878 -2.301866,1.601609 -4.264347,1.784868 -1.600064,0.149416 -1.745325,0.115882 -2.41984,-0.558632 -0.608477,-0.608478 -0.696282,-0.876457 -0.577455,-1.762378 0.07707,-0.574632 0.45629,-1.649422 0.842702,-2.388421 0.386412,-0.738999 0.647974,-1.398229 0.581248,-1.464954 -0.240762,-0.240762 -2.06486,1.598103 -2.757241,2.779563 -1.644101,2.805446 -0.258301,6.477069 2.822067,7.476952 0.936138,0.30387 2.999481,0.08972 3.969719,-0.412011 z m 3.176692,-1.113744 c 0.603235,-0.516347 1.328876,-1.393735 1.612534,-1.949752 0.329871,-0.6466 0.731841,-1.041613 1.115353,-1.096051 0.784296,-0.111326 0.891152,-0.92432 0.339704,-2.584574 -0.467059,-1.406183 -2.726564,-4.586263 -3.585083,-5.045728 -0.759393,-0.406415 -1.217049,-0.03011 -0.540067,0.444069 0.398639,0.279217 0.548599,0.671771 0.548599,1.436082 0,1.050023 -0.603894,2.886915 -0.949098,2.886915 -0.100293,0 -0.69902,-0.47625 -1.330506,-1.058333 -0.631486,-0.582083 -1.370859,-1.058333 -1.643051,-1.058333 -0.664758,0 -1.373719,1.621736 -1.445821,3.307291 -0.05207,1.217327 -0.109056,1.322917 -0.713929,1.322917 -1.052772,0 -1.475219,-1.163052 -0.965649,-2.658558 0.461642,-1.354845 0.364347,-1.5296 -0.221193,-0.39729 -0.541784,1.047694 -0.523753,2.759119 0.03394,3.221889 0.60923,0.505531 3.202718,0.352805 4.666926,-0.274828 0.645878,-0.276855 1.440717,-0.877488 1.766308,-1.334738 0.719247,-1.010091 1.138181,-0.92721 1.38464,0.273932 0.102133,0.497755 0.136879,-0.315381 0.07721,-1.80697 -0.05967,-1.491588 -0.0029,-2.711979 0.126135,-2.711979 0.802536,0 2.109811,2.505758 2.118686,4.061056 0.0062,1.087322 -0.584055,2.584108 -1.230671,3.120752 -0.299789,0.248802 -0.510134,0.254445 -0.879772,0.0236 -0.421129,-0.262999 -0.525034,-0.190789 -0.780674,0.54254 -0.162188,0.465254 -0.735288,1.296928 -1.273554,1.848162 l -0.978667,1.002245 0.825451,-0.287753 c 0.453997,-0.158264 1.319006,-0.710219 1.922241,-1.226566 z m -4.997568,-4.039561 c -0.623637,-1.165277 -0.126126,-3.456978 0.750484,-3.456978 0.633981,0 2.150624,1.688518 2.150624,2.394346 0,0.560126 -1.397413,1.571723 -2.173504,1.573415 -0.249541,5.44e-4 -0.576963,-0.229308 -0.727604,-0.510783 z m 1.559268,-0.1399 c 0.411701,-0.2129 0.813526,-0.556418 0.892942,-0.763376 0.151395,-0.394527 -0.429959,-1.400985 -1.12646,-1.950162 -0.904359,-0.713069 -1.870704,1.929982 -1.017559,2.783127 0.394075,0.394075 0.349673,0.396544 1.251077,-0.06959 z m 5.048906,0.85011 c 0.685547,-1.124379 0.659345,-2.462999 -0.0734,-3.749743 -0.687884,-1.207969 -1.436763,-1.651005 -1.09396,-0.647186 0.117694,0.344639 0.197834,1.668413 0.178089,2.94172 -0.02024,1.305139 0.07335,2.315105 0.21454,2.315105 0.137743,0 0.486371,-0.386954 0.774729,-0.859896 z M 57.67917,92.858206 c 0,-1.412139 0.818931,-3.185108 1.583244,-3.427692 0.55759,-0.176972 1.565459,0.399328 2.492658,1.425302 0.277216,0.306747 0.599858,0.557723 0.716984,0.557723 0.309475,0 0.830194,-1.899651 0.722764,-2.636737 -0.195562,-1.341762 -2.78154,-1.246277 -4.458294,0.164618 -1.417713,1.192927 -2.621232,4.259632 -1.939301,4.941563 0.524976,0.524976 0.881945,0.110197 0.881945,-1.024777 z M 53.366922,90.51946 c 1.467873,-2.082488 4.199364,-3.506986 7.028601,-3.66548 0.693629,-0.03886 1.275712,-0.189712 1.293518,-0.335233 0.10887,-0.88978 -3.930988,-1.361675 -5.921864,-0.691732 -1.771651,0.596172 -3.644257,3.312642 -3.644257,5.286491 0,0.850317 0.340547,0.687696 1.244002,-0.594046 z m 105.030298,9.71352 c -0.097,-0.097 -0.17639,-0.51373 -0.17639,-0.926039 0,-0.736981 -0.0259,-0.749653 -1.53458,-0.749653 -1.733,0 -2.29853,-0.329865 -1.83581,-1.070802 0.4693,-0.751473 -0.18715,-1.310448 -1.53897,-1.310448 -0.91693,0 -1.17409,0.106181 -1.31237,0.541864 -0.0946,0.298025 -0.0328,0.709528 0.13723,0.914452 0.47848,0.576521 0.0705,0.924934 -1.08317,0.924934 -1.20532,0 -1.60676,-0.544301 -0.94265,-1.278129 0.23129,-0.255569 0.90319,-1.531056 1.49313,-2.834416 1.76889,-3.908081 2.23366,-4.750996 2.61961,-4.750996 0.45351,0 0.46507,0.02096 2.31126,4.191291 0.82725,1.868648 1.66507,3.459317 1.86183,3.53482 0.52345,0.200866 1.65674,-0.631995 1.98133,-1.456094 0.15463,-0.392572 0.40322,-1.639458 0.55242,-2.770858 0.23503,-1.782202 0.21356,-2.120869 -0.16065,-2.534375 -0.881,-0.973489 -0.57375,-1.097076 2.72744,-1.097076 3.14375,0 3.80662,0.172727 3.05541,0.796168 -0.30888,0.256352 -0.39396,1.01334 -0.39396,3.505368 0,3.084272 0.0204,3.19732 0.68896,3.816913 0.49322,0.457103 0.64459,0.803981 0.53278,1.220965 -0.0859,0.320353 -0.1578,0.790821 -0.15979,1.045482 -0.002,0.254659 -0.18221,0.463019 -0.40049,0.463019 -0.21828,0 -0.39687,-0.12447 -0.39687,-0.27661 0,-0.152133 -0.29225,-0.568852 -0.64944,-0.92604 -0.58872,-0.588726 -0.8619,-0.649432 -2.92244,-0.649432 -2.06054,0 -2.33372,0.06071 -2.92244,0.649432 -0.35719,0.357188 -0.64943,0.773907 -0.64943,0.92604 0,0.30706 -0.60622,0.37595 -0.88195,0.10022 z m 0.96163,-0.972557 c 0.57431,-1.496613 6.02206,-1.626603 6.80568,-0.162391 0.40669,0.759917 0.78755,0.630869 0.78755,-0.266851 0,-0.519574 -0.18281,-0.88228 -0.54143,-1.074206 -0.5095,-0.272676 -0.53911,-0.51117 -0.50216,-4.044204 l 0.0393,-3.754441 h -2.34091 -2.3409 l 0.088,1.903463 c 0.14636,3.165596 -0.51241,4.802035 -2.42909,6.034037 -0.28012,0.180052 -0.36395,0.497046 -0.2624,0.992188 0.16008,0.780566 0.47511,0.949034 0.69638,0.372405 z m 1.63643,-1.767413 c -0.0919,-0.14879 0.012,-0.8334 0.23104,-1.521354 0.21903,-0.687954 0.4744,-2.024732 0.56749,-2.970617 0.25329,-2.573465 0.31005,-2.688691 1.27828,-2.594765 l 0.83728,0.08122 0.0745,3.270089 c 0.0498,2.185002 -0.0268,3.392177 -0.23084,3.638021 -0.35445,0.427093 -2.50703,0.503121 -2.75778,0.0974 z m 2.72405,-3.499784 0.0745,-3.108854 h -0.65787 c -0.54117,0 -0.67918,0.152529 -0.77801,0.859896 -0.29063,2.080047 -0.6835,4.347657 -0.85097,4.911729 -0.17283,0.582127 -0.12471,0.608162 0.97799,0.529166 l 1.15977,-0.08308 z m -5.81144,3.898005 c 0.0462,-0.04129 -0.20515,-0.652461 -0.55847,-1.358155 -0.35332,-0.705693 -1.1482,-2.443939 -1.76639,-3.862767 -0.61819,-1.418828 -1.23677,-2.579687 -1.37463,-2.579687 -0.2453,0 -1.02659,1.598628 -1.42139,2.908342 -0.17469,0.579534 -0.14822,0.61744 0.21858,0.313023 0.35512,-0.294719 0.4822,-0.24738 0.85232,0.317506 0.23924,0.365127 0.39592,0.938642 0.34817,1.274478 -0.0553,0.388772 0.12957,0.785803 0.50876,1.092833 0.36596,0.296306 0.59558,0.773367 0.59558,1.237371 0,0.848827 0.46094,1.081237 1.71979,0.867133 0.43656,-0.07425 0.83152,-0.168785 0.87768,-0.210077 z m -6.30164,-0.801923 c 0,-0.80612 0.12154,-0.991641 0.8599,-1.312561 0.47294,-0.20556 0.70723,-0.378406 0.52064,-0.384102 -0.18659,-0.0057 -0.44053,-0.278247 -0.56431,-0.605669 -0.2032,-0.537479 -0.28946,-0.450806 -0.88798,0.892171 -0.36461,0.818115 -0.79528,1.569283 -0.95704,1.66926 -0.51358,0.317407 -0.31778,0.679715 0.36733,0.679715 0.58128,0 0.66146,-0.113801 0.66146,-0.938814 z m 2.3772,-2.434624 c -0.009,-0.447757 -0.48576,-0.91545 -0.76012,-0.745886 -0.48954,0.302554 -0.32983,0.944324 0.235,0.944324 0.29104,0 0.52735,-0.0893 0.52512,-0.198438 z m -78.546223,3.662764 c -0.306674,-0.194228 -0.295967,-0.331582 0.06615,-0.84857 0.619086,-0.88387 0.626232,-6.195974 0.0093,-6.87773 -0.721438,-0.79718 -0.20126,-1.029693 2.303631,-1.029693 3.269134,0 4.469163,0.674919 4.469163,2.513542 0,1.435563 -1.242551,2.513542 -2.897278,2.513542 -0.787395,0 -0.806889,0.03068 -0.806889,1.27 0,0.698499 0.134872,1.404871 0.299716,1.569715 0.164843,0.164843 0.228111,0.486312 0.140595,0.714375 -0.119357,0.311039 -0.541369,0.413647 -1.688778,0.410608 -0.841312,-0.0022 -1.694313,-0.108334 -1.895558,-0.235789 z m 2.836755,-1.942972 c -0.0045,-0.909505 -0.0052,-1.921536 -0.0016,-2.248958 0.0036,-0.327422 -0.01205,-1.220391 -0.03476,-1.984375 -0.0227,-0.763985 0.01557,-1.567657 0.08504,-1.785938 0.09903,-0.311138 -0.121264,-0.396875 -1.019762,-0.396875 h -1.14611 l -0.04454,4.034932 -0.04454,4.034931 1.107212,-3.5e-5 1.107212,-3.6e-5 z M 81.156739,93.6316 c 1.328218,-0.837388 0.990174,-2.765035 -0.601521,-3.430087 -1.236639,-0.516701 -1.983859,-0.17672 -1.190199,0.541533 0.631932,0.57189 0.703157,1.886798 0.142336,2.627701 -0.757333,1.000515 0.228801,1.156474 1.649384,0.260853 z m -1.6082,-1.097572 c 0.175621,-0.699732 -0.117402,-1.410459 -0.65546,-1.589811 -0.211947,-0.07065 -0.311827,0.324197 -0.311827,1.232719 0,1.08284 0.0758,1.307575 0.399159,1.18349 0.219537,-0.08425 0.475195,-0.456123 0.568128,-0.826398 z m 5.124426,5.444542 c -1.533429,-1.041184 -2.122963,-2.166258 -2.122963,-4.05149 0,-2.032027 0.672768,-3.175812 2.373302,-4.034896 4.147321,-2.095162 8.310271,1.933937 6.382968,6.177738 -0.730906,1.609411 -1.900719,2.324838 -3.987848,2.438864 -1.470783,0.08035 -1.861583,0.002 -2.645459,-0.530216 z m 1.355442,-0.570583 c -1.484472,-1.580148 -1.42743,-5.423643 0.103211,-6.954284 l 0.627664,-0.627664 -0.583286,9.89e-4 c -0.859059,0.0015 -2.233251,0.93005 -2.833673,1.914821 -0.624702,1.024593 -0.702101,3.067014 -0.156002,4.1166 0.519026,0.997552 1.537792,1.893873 2.437955,2.14494 1.011067,0.281998 1.10223,0.14769 0.404131,-0.595402 z m 3.795195,0.04562 c 0.868863,-0.683448 1.710612,-2.418761 1.710612,-3.526525 0,-1.958889 -1.779404,-4.097549 -3.411317,-4.100052 l -0.644814,-9.89e-4 0.777105,0.810794 c 0.718339,0.74948 0.783788,0.984578 0.865471,3.108854 0.08098,2.105955 0.03188,2.381001 -0.587339,3.290247 l -0.675704,0.992188 h 0.617803 c 0.339792,0 0.946474,-0.258533 1.348183,-0.574517 z m -1.449867,-0.814546 c 0.576944,-0.946255 0.728301,-3.601349 0.273493,-4.797584 -0.363594,-0.956325 -1.426731,-1.597249 -2.074446,-1.250602 -0.939116,0.502599 -1.499707,2.841113 -1.134567,4.732859 0.427008,2.212275 1.967724,2.902628 2.93552,1.315327 z m 4.335081,1.300107 C 91.840794,97.192526 92.03668,96.60314 93.027634,96.9799 c 1.08712,0.413323 1.913362,0.30269 2.235557,-0.299336 0.443271,-0.828261 0.105756,-1.678213 -0.83672,-2.107077 -1.036317,-0.471565 -1.052912,-0.781672 -0.07083,-1.323462 0.533661,-0.294406 0.785941,-0.659203 0.841723,-1.21713 0.148834,-1.488623 -1.270361,-1.878668 -1.796871,-0.493843 -0.43376,1.140876 -1.060911,0.841302 -1.060911,-0.506772 0,-0.646255 0.133528,-1.257534 0.296728,-1.358398 0.163201,-0.100863 1.10597,-0.197187 2.095044,-0.214052 1.546414,-0.02637 1.890864,0.05624 2.459011,0.589738 0.969204,0.910097 1.095593,1.76895 0.427063,2.902023 -0.36326,0.61568 -0.459995,0.993942 -0.270352,1.057156 0.408058,0.136019 1.077923,1.491139 1.077923,2.180613 0,0.31282 -0.404813,0.973576 -0.899584,1.468347 -0.824611,0.824611 -1.032862,0.899583 -2.498787,0.899583 -1.294467,0 -1.73614,-0.117786 -2.317815,-0.618122 z m 3.83266,0.06027 c 1.672587,-0.583067 1.935699,-2.606273 0.484286,-3.723941 l -0.578315,-0.445334 0.591902,-0.630052 c 1.29319,-1.376537 0.335883,-3.37407 -1.617005,-3.37407 h -1.058333 l 0.575287,0.612365 c 0.841062,0.895269 0.787261,2.411545 -0.106342,2.997056 l -0.681629,0.446621 0.813921,0.636988 c 0.578432,0.452691 0.81392,0.861094 0.81392,1.411563 0,0.758989 -0.784258,1.832906 -1.338531,1.832906 -0.154109,0 -0.206614,0.119063 -0.116677,0.264584 0.215245,0.348274 1.17166,0.335902 2.217516,-0.02869 z m -3.196474,-7.167981 c 0.466459,-0.466459 0.388066,-0.740833 -0.211667,-0.740833 -0.352778,0 -0.529167,0.176389 -0.529167,0.529167 0,0.599733 0.274375,0.678125 0.740834,0.211666 z m 7.858128,7.366673 c -1.656346,-0.766084 -2.516551,-2.258874 -2.509193,-4.354418 0.01221,-3.477632 3.666603,-5.575368 6.883813,-3.951526 1.70411,0.860131 2.42049,2.216357 2.30447,4.362775 -0.095,1.75783 -0.5416,2.620633 -1.86965,3.612165 -0.90561,0.676136 -3.65423,0.865306 -4.80944,0.331004 z m 0.81723,-1.086616 c -1.24072,-1.828307 -1.11078,-5.080663 0.26016,-6.511616 l 0.7414,-0.773857 h -0.67183 c -0.36951,0 -1.0643,0.26789 -1.54397,0.595312 -2.33341,1.592759 -2.473765,5.045697 -0.28013,6.89152 0.46752,0.393388 1.13496,0.715251 1.48321,0.715251 h 0.63319 z m 4.09323,0.201359 c 2.19364,-1.845823 2.05329,-5.298761 -0.28012,-6.89152 -0.47968,-0.327422 -1.18195,-0.592665 -1.56062,-0.589429 l -0.68847,0.0059 0.56434,0.457138 c 0.31039,0.251425 0.68167,0.695262 0.82507,0.986304 0.8324,1.689428 0.63098,4.761526 -0.39187,5.977116 l -0.64771,0.769759 h 0.66468 c 0.36557,0 1.04719,-0.321863 1.5147,-0.715251 z m -1.62238,-0.511056 c 0.44279,-0.562912 0.54837,-1.07487 0.54837,-2.658972 0,-2.545036 -0.46347,-3.523054 -1.66954,-3.523054 -1.23815,0 -1.77033,1.007196 -1.76905,3.348114 0.002,3.080475 1.52296,4.57211 2.89022,2.833912 z m 4.31072,1.548742 c -0.27177,-0.18553 -0.25902,-0.384025 0.0645,-1.004434 0.5825,-1.117011 0.56763,-5.849342 -0.021,-6.68976 -0.68245,-0.974337 -0.18182,-1.153974 2.93641,-1.053651 2.72171,0.08757 2.85386,0.119324 3.46761,0.833393 0.74423,0.865882 0.81346,1.78669 0.20423,2.716491 -0.39654,0.605206 -0.39757,0.689672 -0.0119,0.982878 0.72004,0.547433 1.02601,1.73184 0.64691,2.504207 -0.67585,1.376967 -1.57848,1.759556 -4.37562,1.854648 -1.41483,0.0481 -2.72484,-0.0166 -2.91112,-0.143772 z m 3.11682,-0.571404 c 0,-0.136932 -0.11906,-0.322553 -0.26458,-0.41249 -0.28873,-0.178443 -0.36208,-2.216194 -0.10399,-2.888777 0.39957,-1.041258 2.22065,0.109161 2.22065,1.402836 0,0.36478 -0.31993,0.997173 -0.71096,1.405318 l -0.71095,0.742082 h 0.85639 c 2.37969,0 3.56215,-2.120166 1.99334,-3.574093 l -0.68886,-0.638409 0.55656,-0.707555 c 0.30611,-0.389156 0.55657,-0.913568 0.55657,-1.16536 0,-0.780101 -1.03145,-1.823061 -1.97867,-2.000762 -1.26901,-0.238066 -1.62353,0.0769 -0.80832,0.718143 0.36868,0.290002 0.67032,0.789799 0.67032,1.11066 0,0.891457 -0.75436,1.802464 -1.41461,1.708368 -0.47961,-0.06835 -0.58266,-0.283323 -0.65125,-1.358528 -0.0453,-0.7095 0.0562,-1.443225 0.22824,-1.650515 0.39572,-0.476807 -0.14029,-0.717042 -1.33096,-0.596529 l -0.83771,0.08479 -0.0474,4.035041 -0.0474,4.035041 1.25677,-1.45e-4 c 0.69122,-8e-5 1.25677,-0.112181 1.25677,-0.249114 z m 1.17173,-0.960555 c 0.4883,-0.488299 0.50314,-0.642887 0.15076,-1.569723 -0.19076,-0.50175 -0.4223,-0.673358 -0.82645,-0.612537 -0.4504,0.06778 -0.57483,0.293815 -0.62912,1.142826 -0.0372,0.582083 -0.0155,1.14763 0.0483,1.25677 0.19338,0.330837 0.81601,0.22314 1.25649,-0.217336 z m -0.12217,-4.416004 c 0.35133,-0.623102 0.34118,-0.740154 -0.10715,-1.235558 -0.27239,-0.300986 -0.58641,-0.547247 -0.69781,-0.547247 -0.30747,0 -0.57193,1.502162 -0.37415,2.125285 0.21787,0.686466 0.67358,0.554104 1.17911,-0.34248 z m 3.98805,5.902212 c -0.3333,-0.210819 -0.32422,-0.313044 0.0661,-0.744386 0.63766,-0.70461 0.66908,-6.421668 0.0388,-7.051995 -0.67703,-0.677023 -0.19009,-0.94697 1.70818,-0.94697 2.01227,0 2.33135,0.149453 1.73231,0.811383 -0.27646,0.305489 -0.38652,0.839327 -0.3313,1.60702 l 0.0827,1.149571 1.27336,0.180828 c 2.36661,0.336079 3.39775,1.580091 2.84576,3.433281 -0.22914,0.769308 -0.50193,1.050277 -1.34864,1.389063 -1.17482,0.470068 -5.40646,0.590174 -6.06725,0.172205 z m 3.17378,-0.788457 c -0.15064,-0.281475 -0.27389,-1.114912 -0.27389,-1.852083 0,-1.244981 0.046,-1.340311 0.64646,-1.340311 0.72903,0 1.47021,0.87869 1.47021,1.742982 0,0.311798 -0.24677,0.880618 -0.54837,1.264045 l -0.54837,0.69714 h 0.90956 c 0.52521,0 1.20997,-0.236295 1.62045,-0.559183 0.59562,-0.468515 0.69793,-0.732356 0.63099,-1.627195 -0.12119,-1.620132 -0.97863,-2.112695 -4.00073,-2.298236 -0.11917,-0.0073 -0.18753,-0.816975 -0.15192,-1.79924 l 0.0647,-1.785938 h -1.11431 -1.11432 l -0.0567,4.035079 -0.0567,4.035078 1.39837,-1.82e-4 c 1.30052,-1.7e-4 1.37921,-0.036 1.12448,-0.511956 z m 1.35681,-0.932597 c 0.23739,-0.521014 0.2087,-0.784544 -0.14406,-1.322917 -0.70096,-1.069799 -1.22206,-0.867582 -1.22206,0.474231 0,0.630591 0.0794,1.225903 0.17639,1.322917 0.36697,0.366966 0.90399,0.152907 1.18973,-0.474231 z m 2.87774,1.721054 c -0.3333,-0.210819 -0.32422,-0.313044 0.0661,-0.744386 0.61422,-0.678699 0.66516,-6.254701 0.065,-7.111587 -0.21314,-0.304305 -0.31236,-0.628454 -0.22049,-0.72033 0.27605,-0.276042 3.73884,-0.188012 3.91657,0.09956 0.0906,0.146637 -0.0214,0.452798 -0.24897,0.680357 -0.63033,0.630327 -0.59891,6.347385 0.0388,7.051995 0.62915,0.695207 0.10204,0.988765 -1.77542,0.988765 -0.80036,0 -1.62907,-0.10997 -1.84156,-0.244379 z m 2.7676,-0.272889 c 0.16719,-0.0022 0.24372,-1.488834 0.20791,-4.038508 l -0.0567,-4.035079 h -1.07728 -1.07728 l -0.0567,4.028424 c -0.0605,4.299078 -0.028,4.405687 1.26624,4.152226 0.29104,-0.057 0.64823,-0.105176 0.79375,-0.107063 z m 1.9949,0.272889 c -0.3333,-0.210819 -0.32422,-0.313044 0.0661,-0.744386 0.65838,-0.727501 0.67404,-6.790362 0.0185,-7.157228 -0.78064,-0.436867 -0.0943,-0.841568 1.44183,-0.850119 l 1.50574,-0.0084 -0.72761,-0.542852 c -0.85703,-0.639418 -0.94168,-1.423863 -0.19667,-1.822581 0.43591,-0.233291 0.65117,-0.163922 1.20266,0.387566 0.8131,0.813103 1.20625,0.840939 1.84882,0.130901 0.68544,-0.757405 1.55486,-0.577389 1.66083,0.34388 0.0547,0.475474 -0.0604,0.784453 -0.33073,0.888204 -0.82174,0.315331 -0.38896,0.631646 0.86422,0.631646 1.53202,0 1.7847,0.186031 1.17211,0.862937 -0.39393,0.435294 -0.45023,0.973998 -0.38874,3.719996 0.057,2.547008 0.1552,3.257608 0.47474,3.436428 0.31511,0.176345 0.33497,0.307214 0.0912,0.600955 -0.31918,0.384596 -2.71111,0.53012 -3.53251,0.214918 -0.45713,-0.175416 -0.58098,-0.897734 -0.15393,-0.897734 0.1512,0 0.26051,-0.765358 0.25507,-1.785937 l -0.01,-1.785938 -0.64987,0.79375 c -0.35744,0.436563 -0.8225,1.149191 -1.03348,1.583619 -0.34231,0.704852 -0.33655,0.841863 0.0536,1.272924 0.61347,0.677874 0.0718,0.971812 -1.79076,0.971812 -0.80036,0 -1.62907,-0.10997 -1.84156,-0.244379 z m 3.0304,-0.811488 c -0.17667,-0.556635 1.32381,-3.5682 2.09791,-4.210645 0.33111,-0.274796 0.42482,-0.21195 0.57476,0.385419 0.0985,0.392565 0.11036,1.534166 0.0263,2.536892 l -0.15284,1.823138 1.10908,-1.53e-4 1.10909,-1.53e-4 V 93.926839 89.82586 l -1.12448,9e-5 c -1.07709,8.7e-5 -1.12448,0.0341 -1.12448,0.80698 0,0.889936 -0.51595,2.045841 -1.49991,3.360298 -1.02128,1.364312 -1.19788,1.112284 -1.11242,-1.5875 l 0.0775,-2.447396 h -1.1233 -1.1233 l -0.0567,4.035079 -0.0567,4.035078 1.2746,-1.82e-4 c 1.15863,-1.67e-4 1.25915,-0.04884 1.10486,-0.534987 z m 1.40109,-4.835867 c 0.95338,-1.573065 1.03452,-1.98333 0.43757,-2.2124 -0.22664,-0.08697 -0.34944,-0.32136 -0.27288,-0.520863 0.0805,-0.209701 -0.0313,-0.362733 -0.265,-0.362733 -0.2223,0 -0.34043,0.10315 -0.26252,0.229223 0.0779,0.126072 -0.0936,0.442182 -0.38126,0.702465 -0.40722,0.368536 -0.52292,0.815412 -0.52292,2.019736 0,0.850571 0.0939,1.546493 0.20868,1.546493 0.11477,0 0.59102,-0.630865 1.05833,-1.401921 z m -0.47326,-3.806547 c 0,-0.333011 -1.14577,-1.406115 -1.50133,-1.406115 -0.51346,0 -0.42835,0.986842 0.11226,1.301723 0.53069,0.309095 1.38907,0.373605 1.38907,0.104392 z m 2.24138,-0.17723 c 0.49343,-0.360805 0.41848,-1.228885 -0.10611,-1.228885 -0.30694,0 -1.34152,1.058703 -1.34152,1.372806 0,0.34009 0.90934,0.249685 1.44763,-0.143921 z m 8.73883,9.524454 c -3.16154,-1.462261 -3.38094,-6.03186 -0.38481,-8.014609 1.09195,-0.722617 1.86368,-0.815691 4.88272,-0.588877 l 1.32292,0.09939 0.0807,1.259328 c 0.10614,1.655176 -0.37193,1.835873 -1.60222,0.605592 -1.11696,-1.116967 -1.97924,-1.202577 -3.02784,-0.300612 -0.69808,0.600464 -0.74236,0.764506 -0.74236,2.750347 0,1.672407 0.10039,2.222727 0.48249,2.644946 0.75541,0.834715 1.67403,0.937279 2.93359,0.327536 0.61414,-0.2973 1.26635,-0.540545 1.44936,-0.540545 0.54761,0 0.21337,0.831381 -0.56881,1.41481 -0.92204,0.687753 -3.65945,0.882146 -4.82579,0.342696 z m 4.17954,-0.458223 c 0.39338,-0.179239 0.71525,-0.432592 0.71525,-0.563006 0,-0.130414 -0.26462,-0.05177 -0.58804,0.174762 -0.6721,0.470757 -2.1159,0.541002 -2.8662,0.139451 -0.80966,-0.433318 -1.36334,-1.802215 -1.37796,-3.406807 -0.018,-1.97287 0.58543,-3.099359 2.00547,-3.744081 l 1.10693,-0.502564 -1.19062,-0.0048 c -3.4716,-0.01406 -5.47519,4.247713 -3.24373,6.899648 0.38717,0.460134 1.06704,1.00174 1.51082,1.203567 0.90208,0.41026 2.80579,0.315199 3.92808,-0.196148 z m 1.37501,-7.125456 c -0.12545,-0.395268 -0.40189,-0.523827 -1.12637,-0.523827 h -0.96011 l 0.89991,0.928478 c 0.74387,0.767474 0.93919,0.85831 1.12637,0.523828 0.12455,-0.222558 0.15164,-0.640373 0.0602,-0.928479 z m 18.17857,7.625339 c -0.53332,-0.533319 -0.36483,-1.491372 0.34396,-1.955788 0.61274,-0.401483 0.71017,-0.401483 1.32291,0 0.36381,0.238372 0.66146,0.66028 0.66146,0.937572 0,1.082714 -1.57504,1.771505 -2.32833,1.018216 z m 1.65979,-0.374668 c 0.49152,-0.491521 0.42987,-0.870161 -0.2071,-1.271951 -0.47214,-0.297815 -1.25028,0.0075 -1.43553,0.563249 -0.10182,0.305473 0.62076,1.136287 0.98826,1.136287 0.12473,0 0.4192,-0.192413 0.65437,-0.427585 z m 2.67182,0.276395 c -0.99348,-0.993474 -0.0305,-2.608863 1.17172,-1.965477 0.29104,0.155761 0.52917,0.421888 0.52917,0.591393 0,0.22548 0.0787,0.229518 0.29315,0.01504 0.21447,-0.214474 -0.11588,-1.027509 -1.23093,-3.029479 -0.83823,-1.504983 -1.7467,-2.95179 -2.0188,-3.215126 -0.76037,-0.735861 -0.35404,-0.976415 1.64928,-0.976415 h 1.83647 v 0.812782 c 0,0.44703 0.31789,1.355219 0.70642,2.018198 0.66547,1.135551 0.72845,1.17662 1.08657,0.708573 0.72704,-0.950212 1.17332,-2.266573 0.87094,-2.568954 -0.73468,-0.73468 -0.2764,-0.943132 2.16471,-0.984636 1.34607,-0.02289 2.96634,-0.05532 3.6006,-0.07207 0.98535,-0.02603 1.26456,0.09416 1.91823,0.825748 0.91118,1.019786 0.94575,1.474197 0.20466,2.689875 -0.36542,0.599429 -0.45459,0.95057 -0.25803,1.016091 0.41226,0.137422 1.08298,1.488972 1.08298,2.182299 0,0.31282 -0.40481,0.973576 -0.89958,1.468347 -0.81076,0.810752 -1.0472,0.899583 -2.39439,0.899583 -1.56437,0 -3.05603,-0.562942 -3.05603,-1.153322 0,-0.612528 0.31171,-0.686173 1.24816,-0.294895 1.0991,0.459229 1.83881,0.171291 2.08555,-0.811814 0.18625,-0.742057 -0.16896,-1.288255 -1.1554,-1.776675 -0.85039,-0.421055 -0.841,-0.770728 0.0323,-1.202479 0.38313,-0.189417 0.77438,-0.65433 0.86946,-1.033139 0.3665,-1.460274 -1.06361,-2.136966 -1.70187,-0.80528 -0.1918,0.400183 -0.51292,0.727605 -0.7136,0.727605 -0.20134,0 -0.40238,-0.32608 -0.44858,-0.727605 -0.1568,-1.362703 -0.80536,-0.731313 -2.44696,2.382169 -2.23199,4.233225 -2.59732,4.695435 -3.7112,4.695435 -0.49457,0 -1.08632,-0.187098 -1.31499,-0.415773 z m 2.40219,-0.576414 c 0.67113,-0.722329 1.45829,-2.094536 1.96294,-3.421842 0.23039,-0.605975 0.21273,-0.650091 -0.14227,-0.355465 -0.28994,0.240626 -0.49944,0.256077 -0.73603,0.05428 -0.33983,-0.289853 -1.63706,-2.72672 -1.8914,-3.553017 -0.10358,-0.336516 -0.42189,-0.46302 -1.16506,-0.46302 -1.26375,0 -1.48094,0.19626 -1.01096,0.913546 1.08453,1.655195 3.07523,5.507247 3.07523,5.950635 0,0.796595 -0.55325,0.949171 -1.05065,0.28975 -0.50183,-0.665285 -1.40897,-0.649439 -1.53922,0.02689 -0.10697,0.55545 0.63061,1.285847 1.29848,1.285847 0.2876,0 0.82712,-0.327422 1.19894,-0.727604 z m 9.57908,0.350572 c 0.864,-0.446794 1.44296,-1.574477 1.21437,-2.36535 -0.0898,-0.3107 -0.47612,-0.827801 -0.85849,-1.149112 l -0.69521,-0.584203 0.58572,-0.623475 c 1.28721,-1.370169 0.32447,-3.367494 -1.62318,-3.367494 h -1.05833 l 0.57528,0.612365 c 0.79421,0.845388 0.75948,2.152619 -0.0778,2.928577 l -0.65309,0.605258 0.78538,0.580654 c 0.56416,0.4171 0.78538,0.802 0.78538,1.366483 0,0.768505 -0.78074,1.844162 -1.33854,1.844162 -0.15411,0 -0.20661,0.119063 -0.11667,0.264584 0.23885,0.386473 1.63282,0.323144 2.47517,-0.112449 z m -6.19045,-6.332874 c 0.85424,-1.418598 0.85371,-1.984414 -0.002,-1.656218 -0.21131,0.08109 -0.38842,0.478592 -0.39358,0.883341 -0.005,0.40475 -0.17953,1.033564 -0.3875,1.397367 -0.37236,0.651384 -0.53231,1.281962 -0.25477,1.004422 0.0782,-0.07816 0.545,-0.811168 1.03741,-1.628912 z m 2.73632,-0.751344 c 0.46646,-0.466459 0.38807,-0.740833 -0.21167,-0.740833 -0.35278,0 -0.52916,0.176389 -0.52916,0.529167 0,0.599733 0.27437,0.678125 0.74083,0.211666 z"
         id="path13" /><path
         style="fill:#5f9f61"
         d="m 58.549348,115.63134 c -0.718796,-0.51714 -1.244676,-2.20302 -0.839485,-2.69124 0.153695,-0.18519 0.20731,-0.45343 0.119143,-0.59609 -0.317696,-0.51404 -3.755032,-2.77409 -5.273381,-3.46725 l -1.551669,-0.70837 0.733468,-0.57695 c 1.066074,-0.83857 3.350359,-1.42003 5.578661,-1.42003 3.126605,0 4.941745,1.17725 5.495927,3.56452 0.223514,0.96285 -0.09411,0.9264 -1.729327,-0.19843 -1.773188,-1.21974 -2.50837,-1.21067 -1.078433,0.0133 2.616692,2.23979 2.674565,3.29399 0.180833,3.29399 -1.316613,0 -1.389553,0.0347 -1.252306,0.59531 0.36012,1.47105 1.20969,1.63318 2.521677,0.48124 1.373886,-1.20629 2.353643,-3.24076 2.512253,-5.2167 l 0.136359,-1.69876 -1.062052,0.16983 c -1.717546,0.27465 -1.822491,-0.61947 -0.196663,-1.67554 0.568511,-0.36928 0.920233,-0.81003 0.920233,-1.15316 0,-0.46471 0.111322,-0.52748 0.681605,-0.38435 0.444179,0.11148 1.25061,-0.0558 2.315104,-0.4801 2.393456,-0.95412 5.432405,-1.67051 9.174124,-2.16268 4.561235,-0.59997 15.865766,-0.40006 21.563541,0.38133 8.95556,1.22816 18.28859,3.59587 24.6041,6.24183 2.94131,1.2323 7.01361,3.50963 7.01361,3.92218 0,0.13334 -0.14883,0.17791 -0.33073,0.0991 -0.1819,-0.0789 -1.64042,-0.73467 -3.24115,-1.45736 -9.74895,-4.40143 -24.19407,-7.2354 -38.893746,-7.63051 -9.420242,-0.25321 -16.792092,0.75814 -20.968229,2.87664 -0.454111,0.23037 -0.595312,0.53196 -0.595312,1.27153 0,1.34143 0.233077,1.45359 1.173228,0.56459 1.045952,-0.98905 2.548486,-1.46438 3.947141,-1.24868 1.728984,0.26665 3.506603,0.92346 4.012653,1.48264 0.443208,0.48974 0.441638,0.51958 -0.03503,0.66582 -0.274469,0.0842 -1.822731,0.81792 -3.440582,1.63048 -2.284663,1.14747 -3.099609,1.43772 -3.649351,1.29975 -1.088187,-0.27312 -1.132223,-0.87444 -0.139074,-1.89911 1.003502,-1.03535 0.738573,-1.15598 -0.789531,-0.35949 -0.895968,0.46701 -1.113758,0.75638 -1.456425,1.93511 -0.969394,3.3346 -4.360595,5.83109 -6.161185,4.53566 z m 3.408732,-1.00064 c 0.746319,-0.56048 1.421447,-1.41272 1.938798,-2.4474 0.676455,-1.35289 0.800115,-1.91864 0.836822,-3.82854 0.05195,-2.70282 0.184926,-2.8557 3.355118,-3.85738 4.706164,-1.487 7.789668,-1.83568 16.180976,-1.82975 4.249784,0.003 9.030365,0.15177 10.715624,0.33345 11.703022,1.26165 20.364542,3.16546 28.442402,6.25166 2.54713,0.97315 1.85176,0.42399 -1.104,-0.87186 -4.90367,-2.14986 -13.1564,-4.44624 -20.54609,-5.7171 -6.725032,-1.15655 -11.799057,-1.53199 -18.823984,-1.39285 -7.217801,0.14296 -11.031555,0.67546 -14.921524,2.08343 -1.255794,0.45453 -2.670214,0.88385 -3.143157,0.95404 -0.472942,0.0702 -0.859896,0.28347 -0.859896,0.47396 0,0.1905 -0.416718,0.6039 -0.926041,0.91868 -0.967485,0.59794 -1.3063,1.50442 -0.463021,1.23878 0.254661,-0.0802 0.714492,-0.22276 1.021846,-0.31676 0.75784,-0.23177 0.866016,0.18038 0.606405,2.31043 -0.242142,1.98673 -0.677988,2.99479 -2.001251,4.62866 -1.340891,1.65564 -3.529604,1.86454 -3.529604,0.33688 0,-0.25765 -0.178594,-0.53699 -0.396875,-0.62076 -0.539099,-0.20687 -0.529364,0.84712 0.015,1.62431 0.641703,0.91616 2.174529,0.80048 3.602449,-0.27188 z m -0.360564,-2.63824 c 0.124927,-0.65939 -2.06582,-2.67873 -3.500546,-3.22666 -1.417162,-0.54122 -1.56991,-0.95052 -0.351655,-0.94228 1.057081,0.007 2.691166,0.72978 3.836459,1.69659 l 0.859895,0.72588 v -0.64929 c 0,-1.73266 -2.264895,-3.08705 -5.177498,-3.0961 -3.327069,-0.0103 -6.827892,1.43199 -4.744755,1.95483 0.363594,0.0912 1.815467,0.95408 3.226384,1.91739 2.802243,1.91324 3.453741,2.19914 4.841586,2.12467 0.638967,-0.0343 0.950449,-0.19002 1.01013,-0.50503 z m 8.212135,-1.71878 c 0.63265,-0.36104 1.87669,-1.01684 2.764533,-1.45735 l 1.61426,-0.80092 -0.986708,-0.50621 c -1.712119,-0.87837 -3.711875,-1.11308 -5.218866,-0.61254 -0.71917,0.23887 -1.488099,0.69203 -1.708731,1.00703 -0.507,0.72384 -0.132169,0.86017 0.898955,0.32696 0.439201,-0.22712 1.191413,-0.4067 1.671582,-0.39907 l 0.873035,0.0139 -0.659083,0.44914 c -1.000601,0.68188 -2.648209,2.203 -2.648209,2.44491 0,0.30392 0.80906,0.46539 1.5875,0.31683 0.363802,-0.0694 1.179082,-0.42163 1.811732,-0.78266 z M 158.66247,98.888018 c -0.10155,-0.495142 -0.0177,-0.812136 0.2624,-0.992188 1.91668,-1.232002 2.57545,-2.868441 2.42909,-6.034037 l -0.088,-1.903463 h 2.3409 2.34091 l -0.0393,3.754441 c -0.0369,3.533034 -0.007,3.771528 0.50216,4.044204 0.35862,0.191926 0.54143,0.554632 0.54143,1.074206 0,0.89772 -0.38086,1.026768 -0.78755,0.266851 -0.78362,-1.464212 -6.23137,-1.334222 -6.80568,0.162391 -0.22127,0.576629 -0.5363,0.408161 -0.69638,-0.372405 z m 1.27962,-0.596935 c 0.2642,-0.291934 0.41331,-0.59784 0.33136,-0.679791 -0.22484,-0.224837 -1.25887,0.495815 -1.25887,0.877349 0,0.488195 0.3802,0.407213 0.92751,-0.197558 z m 6.74541,0.325007 c 0,-0.11318 -0.23813,-0.409671 -0.52917,-0.658869 -0.48242,-0.413065 -0.52916,-0.780504 -0.52916,-4.159843 v -3.706756 h -0.6542 -0.65419 l -0.0734,3.770312 -0.0734,3.770313 1.05833,0.559399 c 1.21445,0.641916 1.45521,0.712305 1.45521,0.425444 z m -2.93444,-1.220483 c 0.20403,-0.245844 0.28063,-1.453019 0.23084,-3.638021 l -0.0745,-3.270089 -0.83728,-0.08122 c -0.96823,-0.09393 -1.02499,0.0213 -1.27828,2.594765 -0.0931,0.945885 -0.34846,2.282663 -0.56749,2.970617 -0.21903,0.687954 -0.32299,1.372564 -0.23104,1.521354 0.25075,0.405718 2.40333,0.32969 2.75778,-0.0974 z m -78.128784,0.607782 c -0.900163,-0.251067 -1.918929,-1.147388 -2.437955,-2.14494 -0.546099,-1.049586 -0.4687,-3.092007 0.156002,-4.1166 0.600422,-0.984771 1.974614,-1.913365 2.833673,-1.914821 l 0.583286,-9.89e-4 -0.627664,0.627664 c -1.530641,1.530641 -1.587683,5.374136 -0.103211,6.954284 0.698099,0.743092 0.606936,0.8774 -0.404131,0.595402 z m -0.167841,-0.57058 c -0.0022,-0.03638 -0.175559,-0.542396 -0.385262,-1.124479 -0.49429,-1.372029 -0.500183,-2.905273 -0.01733,-4.509666 0.212945,-0.707562 0.335723,-1.337925 0.27284,-1.400807 -0.258267,-0.258268 -1.40429,0.773904 -1.811088,1.631166 -0.812305,1.711807 -0.370883,4.136119 0.917415,5.038478 0.544098,0.381101 1.03493,0.556301 1.023427,0.365308 z m 8.867525,0.595313 c -0.08994,-0.145521 -0.03743,-0.264584 0.116677,-0.264584 0.554273,0 1.338531,-1.073917 1.338531,-1.832906 0,-0.550469 -0.235488,-0.958872 -0.81392,-1.411563 l -0.813921,-0.636988 0.681629,-0.446621 c 0.893603,-0.585511 0.947404,-2.101787 0.106342,-2.997056 l -0.575287,-0.612365 h 1.058333 c 1.952888,0 2.910195,1.997533 1.617005,3.37407 l -0.591902,0.630052 0.578315,0.445334 c 1.451413,1.117668 1.188301,3.140874 -0.484286,3.723941 -1.045856,0.364588 -2.002271,0.37696 -2.217516,0.02869 z m 2.844271,-0.733761 c 0.78688,-0.690973 0.597644,-2.032569 -0.396875,-2.813668 l -0.859896,-0.675365 0.727604,-0.677436 c 0.915143,-0.852042 0.978188,-2.037999 0.139566,-2.625392 -1.034223,-0.724399 -1.238936,-0.539721 -1.083201,0.977184 0.121446,1.182927 0.06014,1.463479 -0.413153,1.890521 l -0.555762,0.501458 0.658619,0.610388 c 0.684174,0.634071 0.932774,2.28707 0.394035,2.620029 -0.14552,0.08994 -0.264583,0.343112 -0.264583,0.562611 0,0.475887 0.926181,0.268471 1.653646,-0.37033 z m 28.244269,0.834534 c -0.33369,-0.09561 -0.38785,-0.755064 -0.3402,-4.142141 l 0.0567,-4.028424 h 1.07728 1.07728 l 0.0567,4.035079 c 0.0358,2.549674 -0.0407,4.036341 -0.20791,4.038508 -0.14552,0.0019 -0.50271,0.05006 -0.79375,0.107063 -0.29104,0.057 -0.70776,0.05246 -0.92604,-0.01009 z M 127,93.92708 v -3.836458 h -0.79375 -0.79375 v 3.836458 3.836458 H 126.20625 127 Z m 17.31709,4.008973 c -0.44378,-0.201827 -1.12365,-0.743433 -1.51082,-1.203567 -2.23146,-2.651935 -0.22787,-6.913707 3.24373,-6.899648 l 1.19062,0.0048 -1.10693,0.502564 c -1.42004,0.644722 -2.02343,1.771211 -2.00547,3.744081 0.0146,1.604592 0.5683,2.973489 1.37796,3.406807 0.7503,0.401551 2.1941,0.331306 2.8662,-0.139451 0.32342,-0.226533 0.58804,-0.305176 0.58804,-0.174762 0,0.777195 -3.38632,1.330836 -4.64333,0.759154 z m 0.67458,-0.350119 c 0,-0.09768 -0.1776,-0.37385 -0.39467,-0.613707 -0.99146,-1.095544 -0.97275,-4.437197 0.0334,-5.972826 0.52851,-0.806602 0.0864,-0.861325 -0.95689,-0.118441 -0.79047,0.562863 -1.59229,2.236996 -1.59229,3.324556 0,1.131781 0.72175,2.46362 1.63772,3.022073 0.91397,0.557228 1.2727,0.658234 1.2727,0.358345 z m 10.78177,0.526881 c -0.30398,-0.08107 -0.46302,-0.382887 -0.46302,-0.87864 0,-0.464004 -0.22962,-0.941065 -0.59558,-1.237371 -0.37919,-0.30703 -0.56403,-0.704061 -0.50876,-1.092833 0.0478,-0.335836 -0.10893,-0.909351 -0.34817,-1.274478 -0.37012,-0.564886 -0.4972,-0.612225 -0.85232,-0.317506 -0.3668,0.304417 -0.39327,0.266511 -0.21858,-0.313023 0.3948,-1.309714 1.17609,-2.908342 1.42139,-2.908342 0.13786,0 0.75644,1.160859 1.37463,2.579687 0.61819,1.418828 1.41307,3.157074 1.76639,3.862767 0.35332,0.705694 0.60464,1.316864 0.55847,1.358155 -0.19854,0.177589 -1.71079,0.33458 -2.13445,0.221584 z m 1.65364,-0.533332 c 0,-0.341987 -3.03535,-6.959694 -3.19221,-6.959694 -0.10074,0 -0.32852,0.350892 -0.50616,0.779759 -0.32608,0.787224 -0.0174,1.740737 1.47386,4.55273 0.20483,0.386255 0.37243,0.886354 0.37243,1.111332 0,0.523614 0.72589,0.932718 1.3605,0.766764 0.27037,-0.0707 0.49158,-0.183605 0.49158,-0.250891 z m 10.72271,0.285637 c -0.49152,-0.491521 -0.42987,-0.870161 0.2071,-1.271951 0.47214,-0.297815 1.25028,0.0075 1.43553,0.563249 0.10182,0.305473 -0.62075,1.136287 -0.98825,1.136287 -0.12474,0 -0.4192,-0.192413 -0.65438,-0.427585 z m 1.10995,-0.133822 c 0.40265,-0.40265 0.12585,-1.026093 -0.45557,-1.026093 -0.58143,0 -0.85823,0.623443 -0.45558,1.026093 0.16326,0.163253 0.36826,0.296824 0.45558,0.296824 0.0873,0 0.29232,-0.133571 0.45557,-0.296824 z m 3.12198,0.132418 c -0.23594,-0.235945 -0.39191,-0.62153 -0.34659,-0.856858 0.13025,-0.676327 1.03739,-0.692173 1.53922,-0.02689 0.4974,0.659421 1.05065,0.506845 1.05065,-0.28975 0,-0.443388 -1.9907,-4.29544 -3.07523,-5.950635 -0.46998,-0.717286 -0.25279,-0.913546 1.01096,-0.913546 0.74317,0 1.06148,0.126504 1.16506,0.46302 0.25434,0.826297 1.55157,3.263164 1.8914,3.553017 0.23659,0.201795 0.44609,0.186344 0.73603,-0.05428 0.355,-0.294626 0.37266,-0.25051 0.14227,0.355465 -1.2689,3.337457 -2.96386,4.870363 -4.11377,3.720457 z m 1.02856,-0.0612 c 0.0767,-0.124082 -0.0273,-0.451504 -0.23115,-0.727604 -0.29015,-0.393028 -0.44094,-0.432641 -0.69469,-0.182484 -0.25569,0.252078 -0.25261,0.405648 0.0146,0.727604 0.37834,0.455876 0.70221,0.520732 0.91125,0.182484 z m 2.22399,-2.285908 c 0.2551,-0.559899 0.20237,-0.803966 -0.34941,-1.617051 -0.35742,-0.526693 -0.96374,-1.599168 -1.34737,-2.383279 -0.5312,-1.085744 -0.8373,-1.425657 -1.28382,-1.425657 -0.9583,0 -0.97367,0.270303 -0.1038,1.826338 0.45535,0.814524 1.1768,2.106032 1.60323,2.870016 0.42642,0.763984 0.86653,1.389062 0.97801,1.389062 0.11149,0 0.33791,-0.296743 0.50316,-0.659429 z m 6.00219,2.511513 c -0.0899,-0.145521 -0.0374,-0.264584 0.11667,-0.264584 0.5578,0 1.33854,-1.075657 1.33854,-1.844162 0,-0.564483 -0.22122,-0.949383 -0.78538,-1.366483 l -0.78538,-0.580654 0.65309,-0.605258 c 0.83727,-0.775958 0.872,-2.083189 0.0778,-2.928577 l -0.57528,-0.612365 h 1.05833 c 1.94765,0 2.91039,1.997325 1.62318,3.367494 l -0.58572,0.623475 0.69521,0.584203 c 0.38237,0.321311 0.76869,0.838412 0.85849,1.149112 0.22859,0.790873 -0.35037,1.918556 -1.21437,2.36535 -0.84235,0.435593 -2.23632,0.498922 -2.47517,0.112449 z m 2.81662,-0.744286 c 0.9177,-0.940826 0.86971,-1.598829 -0.18949,-2.597782 l -0.98924,-0.932975 0.70241,-0.651311 c 1.23887,-1.148749 0.64927,-3.011146 -0.95328,-3.011146 -0.39218,0 -0.42967,0.09329 -0.20571,0.511772 0.40949,0.765127 0.33055,2.162086 -0.15232,2.695651 -0.39375,0.435085 -0.38367,0.525057 0.13229,1.180994 0.64932,0.82548 0.73464,2.279784 0.16163,2.755333 -0.21828,0.181157 -0.39687,0.446768 -0.39687,0.590246 0,0.380544 1.37574,-0.01297 1.89058,-0.540782 z M 76.11225,93.993262 76.15679,89.95833 h 1.146085 c 0.892618,0 1.121074,0.08777 1.032991,0.396875 -0.28759,1.009224 -0.30439,2.642112 -0.03241,3.150309 0.192573,0.359826 0.212396,0.717708 0.0553,0.998418 -0.301472,0.538702 -0.663301,-1.70478 -0.527136,-3.268463 0.08129,-0.933471 0.03134,-1.019094 -0.639432,-1.096276 l -0.727604,-0.08372 v 3.854033 3.854032 h 0.761249 c 0.744315,0 0.759261,-0.02796 0.671853,-1.25677 -0.07422,-1.043468 -0.05157,-1.122053 0.133488,-0.463021 0.491628,1.750814 0.392882,1.984371 -0.838986,1.984411 l -1.124479,3.5e-5 z m 12.42107,3.042672 c 0.619219,-0.909246 0.668318,-1.184292 0.587339,-3.290247 -0.08168,-2.124276 -0.147132,-2.359374 -0.865471,-3.108854 l -0.777105,-0.810794 0.644814,9.89e-4 c 1.631913,0.0025 3.411317,2.141163 3.411317,4.100052 0,1.826879 -1.696202,4.101042 -3.058795,4.101042 h -0.617803 z m 1.571351,-0.238594 c 1.450113,-1.564699 1.483307,-3.920953 0.07779,-5.52175 -1.06641,-1.214575 -1.740928,-1.269044 -1.131949,-0.09141 0.329228,0.636657 0.402977,1.3579 0.31789,3.108854 -0.06093,1.253933 -0.20399,2.488238 -0.317901,2.742899 -0.317259,0.709266 0.306581,0.56807 1.054172,-0.238594 z m 10.421319,0.515531 c -2.193635,-1.845823 -2.05328,-5.298761 0.28013,-6.89152 0.47967,-0.327422 1.17446,-0.595312 1.54397,-0.595312 h 0.67183 l -0.7414,0.773857 c -1.37094,1.430953 -1.50088,4.683309 -0.26016,6.511616 l 0.62203,0.91661 h -0.63319 c -0.34825,0 -1.01569,-0.321863 -1.48321,-0.715251 z m 0.93747,-0.276937 c -0.72788,-1.744844 -0.70709,-4.470591 0.0454,-5.953125 0.55233,-1.08818 -0.16912,-0.971434 -1.19132,0.192781 -1.411982,1.608164 -1.430673,4.080103 -0.0413,5.469425 0.85333,0.853326 1.48662,1.008503 1.18727,0.290919 z m 3.11846,0.222429 c 1.02285,-1.21559 1.22427,-4.287688 0.39187,-5.977116 -0.1434,-0.291042 -0.51468,-0.734879 -0.82507,-0.986304 l -0.56434,-0.457138 0.68847,-0.0059 c 0.37867,-0.0032 1.08094,0.262007 1.56062,0.589429 2.33341,1.592759 2.47376,5.045697 0.28012,6.89152 -0.46751,0.393388 -1.14913,0.715251 -1.5147,0.715251 h -0.66468 z m 1.59345,-0.292712 c 1.55738,-1.225032 1.64297,-4.182359 0.16518,-5.707056 -1.01274,-1.044881 -1.44042,-1.156551 -1.17989,-0.308077 0.73585,2.396438 0.74175,4.374739 0.0182,6.085416 -0.26084,0.616659 0.16108,0.586903 0.99655,-0.07028 z m 3.27721,-2.97228 0.0474,-4.035041 0.83771,-0.08479 c 1.19067,-0.120513 1.72668,0.119722 1.33096,0.596529 -0.17204,0.20729 -0.2735,0.941015 -0.22824,1.650515 0.0686,1.075205 0.17164,1.290176 0.65125,1.358528 0.66025,0.0941 1.41461,-0.816911 1.41461,-1.708368 0,-0.320861 -0.30164,-0.820658 -0.67032,-1.11066 -0.81521,-0.641241 -0.46069,-0.956209 0.80832,-0.718143 0.94722,0.177701 1.97867,1.220661 1.97867,2.000762 0,0.251792 -0.25046,0.776204 -0.55657,1.16536 l -0.55656,0.707555 0.68886,0.638409 c 0.67,0.620939 0.86242,1.490998 0.5245,2.371614 -0.22908,0.596953 -1.49697,1.202479 -2.51784,1.202479 h -0.85639 l 0.71095,-0.742082 c 0.39103,-0.408145 0.71096,-1.040538 0.71096,-1.405318 0,-1.293675 -1.82108,-2.444094 -2.22065,-1.402836 -0.25809,0.672583 -0.18474,2.710334 0.10399,2.888777 0.60977,0.376862 0.18296,0.661468 -0.99219,0.661604 l -1.25677,1.45e-4 z m 1.77001,1.586986 c -0.0951,-5.983916 -0.0268,-5.489735 -0.75905,-5.489735 h -0.66146 v 3.836458 3.836458 l 0.72761,-3.69e-4 0.7276,-3.69e-4 z m 3.93731,1.449421 c 0.75587,-0.663745 0.58412,-1.77894 -0.39156,-2.54253 l -0.85458,-0.668809 0.72229,-0.753907 c 0.39725,-0.414649 0.72228,-0.955752 0.72228,-1.20245 0,-0.616928 -0.94306,-1.506877 -1.5968,-1.506877 -0.45039,0 -0.49367,0.08372 -0.26459,0.511773 0.39173,0.731947 0.33826,1.659839 -0.13454,2.334854 -0.37601,0.536837 -0.36287,0.644742 0.16559,1.359525 0.57004,0.771023 0.60258,1.605727 0.10795,2.769693 -0.18135,0.426745 -0.12374,0.467277 0.4256,0.299435 0.34943,-0.106766 0.8437,-0.377084 1.09836,-0.600707 z m 2.50407,-3.036369 0.0567,-4.035079 h 1.11432 1.11431 l -0.0647,1.785938 c -0.0356,0.982265 0.0328,1.791923 0.15192,1.79924 3.0221,0.185541 3.87954,0.678104 4.00073,2.298236 0.0669,0.894839 -0.0354,1.15868 -0.63099,1.627195 -0.41048,0.322888 -1.09524,0.559183 -1.62045,0.559183 h -0.90956 l 0.54837,-0.69714 c 0.3016,-0.383427 0.54837,-0.952247 0.54837,-1.264045 0,-0.864292 -0.74118,-1.742982 -1.47021,-1.742982 -0.60048,0 -0.64646,0.09533 -0.64646,1.340311 0,0.737171 0.12325,1.570608 0.27389,1.852083 0.25473,0.47596 0.17604,0.511786 -1.12448,0.511956 l -1.39837,1.82e-4 z m 1.97294,1.778631 c 0.0479,-1.095324 0.0475,-2.82173 -8.1e-4,-3.836458 -0.0877,-1.841964 -0.0891,-1.84496 -0.85989,-1.84496 h -0.77204 v 3.836458 3.836458 h 0.77284 0.77285 z m 3.40748,1.587829 c 0.66289,-0.342796 0.78061,-0.559979 0.78061,-1.440205 0,-1.146531 -0.68505,-1.860292 -1.78546,-1.860292 -0.59747,0 -0.60101,0.01618 -0.18136,0.827705 0.41078,0.794343 0.40773,1.415268 -0.0118,2.413441 -0.2431,0.578357 0.15615,0.598136 1.19805,0.05935 z m 6.79041,-3.36646 0.0567,-4.035079 h 1.1233 1.1233 l -0.0775,2.447396 c -0.0855,2.699784 0.0911,2.951812 1.11242,1.5875 0.98396,-1.314457 1.49991,-2.470362 1.49991,-3.360298 0,-0.772879 0.0474,-0.806893 1.12448,-0.80698 l 1.12448,-9e-5 v 4.100979 4.100979 l -1.10909,1.53e-4 -1.10908,1.53e-4 0.15284,-1.823138 c 0.0841,-1.002726 0.0722,-2.144327 -0.0263,-2.536892 -0.14994,-0.597369 -0.24365,-0.660215 -0.57476,-0.385419 -0.7741,0.642445 -2.27458,3.65401 -2.09791,4.210645 0.15429,0.486148 0.0538,0.53482 -1.10486,0.534987 l -1.2746,1.82e-4 z m 1.97108,3.042525 c 0.0569,-0.400182 0.0576,-2.126588 0.001,-3.836458 l -0.10197,-3.108854 h -0.76519 -0.7652 v 3.836458 3.836458 h 0.76372 c 0.63168,0 0.7816,-0.125792 0.86716,-0.727604 z m 4.80812,-3.042667 -0.0433,-3.770353 h -0.74483 c -0.63012,0 -0.75943,0.12224 -0.83967,0.79375 -0.0522,0.436562 -0.0716,1.031875 -0.0432,1.322916 0.0284,0.291042 0.0685,1.630599 0.0892,2.976795 l 0.0376,2.447628 0.79375,-1.91e-4 0.79375,-1.91e-4 z m 13.66933,3.785886 c 0,-0.136932 0.13236,-0.330768 0.29413,-0.430746 0.16176,-0.09998 0.59243,-0.851145 0.95704,-1.66926 0.59852,-1.342977 0.68478,-1.42965 0.88798,-0.892171 0.12378,0.327422 0.37772,0.599973 0.56431,0.605669 0.18659,0.0057 -0.0477,0.178542 -0.52064,0.384102 -0.73836,0.32092 -0.8599,0.506441 -0.8599,1.312561 0,0.825013 -0.0802,0.938814 -0.66146,0.938814 -0.3638,0 -0.66146,-0.112036 -0.66146,-0.248969 z m -71.009878,-3.67004 c -0.08035,-0.130002 0.02491,-0.462267 0.233903,-0.738366 0.560821,-0.740903 0.489596,-2.055811 -0.142336,-2.627701 -0.79366,-0.718253 -0.04644,-1.058234 1.190199,-0.541533 1.591695,0.665052 1.929739,2.592699 0.601521,3.430087 -0.84489,0.532669 -1.71314,0.752817 -1.883287,0.477513 z m 2.021156,-1.142425 c 0.768892,-1.033845 0.0717,-2.611483 -1.154064,-2.611483 -0.431702,0 -0.473254,0.08656 -0.245684,0.511773 0.354666,0.6627 0.349568,1.762864 -0.01129,2.43714 -0.249815,0.466784 -0.212088,0.522053 0.304185,0.445627 0.324154,-0.04799 0.822239,-0.400362 1.106857,-0.783057 z m 95.456432,0.144594 c 0.005,-0.133395 0.17953,-0.540191 0.3875,-0.903993 0.20797,-0.363803 0.38234,-0.992617 0.3875,-1.397367 0.005,-0.404749 0.18227,-0.802253 0.39358,-0.883341 0.85527,-0.328196 0.8558,0.23762 0.002,1.656218 -0.98006,1.627565 -1.18428,1.89432 -1.17014,1.528483 z M 148.43361,91.0191 147.5337,90.090622 h 0.96011 c 1.03286,0 1.51295,0.653962 1.06617,1.452306 -0.18718,0.334482 -0.3825,0.243646 -1.12637,-0.523828 z m 0.79139,-0.134728 c 0,-0.145521 -0.12609,-0.264583 -0.2802,-0.264583 -0.15411,0 -0.20661,0.119062 -0.11668,0.264583 0.0899,0.145521 0.21603,0.264583 0.2802,0.264583 0.0642,0 0.11668,-0.119062 0.11668,-0.264583 z M 92.604168,90.619789 c 0,-0.352778 0.176389,-0.529167 0.529167,-0.529167 0.599733,0 0.678126,0.274374 0.211667,0.740833 -0.466459,0.466459 -0.740834,0.388067 -0.740834,-0.211666 z m 87.312502,0 c 0,-0.352778 0.17638,-0.529167 0.52916,-0.529167 0.59974,0 0.67813,0.274374 0.21167,0.740833 -0.46646,0.466459 -0.74083,0.388067 -0.74083,-0.211666 z m -48.22032,-1.873277 c -0.54061,-0.314881 -0.62572,-1.301723 -0.11226,-1.301723 0.35556,0 1.50133,1.073104 1.50133,1.406115 0,0.269213 -0.85838,0.204703 -1.38907,-0.104392 z m 0.42641,-0.640265 c -0.16102,-0.419623 -0.62484,-0.550556 -0.62484,-0.176389 0,0.279801 0.28921,0.573264 0.56496,0.573264 0.1167,0 0.14365,-0.178594 0.0599,-0.396875 z m 1.75641,0.711348 c 0,-0.314103 1.03458,-1.372806 1.34152,-1.372806 0.52459,0 0.59954,0.86808 0.10611,1.228885 -0.53829,0.393606 -1.44763,0.484011 -1.44763,0.143921 z m 1.34276,-0.651817 c -0.0327,-0.316363 -0.39563,-0.255094 -0.50933,0.08599 -0.0582,0.174625 0.037,0.269875 0.21167,0.211666 0.17463,-0.05821 0.30857,-0.192153 0.29766,-0.297656 z"
         id="path12" /><path
         style="fill:#d43f41"
         d="m 53.35856,104.47782 c -1.546083,-0.47501 -3.404998,-2.22784 -3.875909,-3.65471 -0.475867,-1.441895 -0.21677,-4.246376 0.539327,-5.837696 l 0.628568,-1.322917 0.148574,2.778125 c 0.210084,3.928268 1.219503,5.691138 4.116465,7.189068 0.936812,0.4844 1.703735,0.97002 1.704273,1.07916 0.0016,0.32462 -1.888572,0.19071 -3.261298,-0.23103 z m 3.767399,-0.77532 c -1.443887,-0.44478 -3.509329,-2.18262 -4.188062,-3.52379 -0.497994,-0.984027 -0.958797,-2.679755 -0.728207,-2.679755 0.07085,0 0.904783,0.775967 1.853188,1.724372 2.812533,2.812533 5.826973,3.890593 9.001886,3.219363 1.262259,-0.26686 1.225494,0.18605 -0.08731,1.07554 -0.71611,0.4852 -1.226194,0.5919 -2.757727,0.57688 -1.033506,-0.0101 -2.425703,-0.18681 -3.093771,-0.39261 z m 3.199044,-1.89096 c -1.032768,-0.37356 -2.116667,-0.95282 -2.116667,-1.13121 0,-0.10885 0.642297,-0.3269 1.427326,-0.48455 2.178085,-0.437425 3.85602,-1.339443 5.385695,-2.895221 1.177423,-1.197517 1.389062,-1.32429 1.389062,-0.832058 0,0.964729 -1.394968,3.420557 -2.38125,4.192169 -1.35436,1.05957 -2.754175,1.49449 -3.704166,1.15087 z m 5.820833,-1.61658 c 0,-0.11793 0.304,-0.981134 0.675557,-1.918232 0.371556,-0.937098 0.745093,-2.496529 0.830083,-3.465403 0.139924,-1.595122 0.07611,-1.929153 -0.675261,-3.534802 -0.456383,-0.975268 -1.321248,-2.36021 -1.921922,-3.07765 -0.600674,-0.717439 -1.038627,-1.357942 -0.973228,-1.423341 0.238183,-0.238184 2.806587,0.588539 3.998493,1.287042 2.194443,1.28603 3.171493,3.086023 2.391683,4.406136 -0.446074,0.755143 -0.446956,0.837188 -0.01683,1.565339 0.694474,1.175651 0.576346,2.422757 -0.350707,3.702518 -1.104649,1.524923 -3.957872,3.297173 -3.957872,2.458393 z M 56.862552,99.377499 C 55.642988,98.98163 54.761815,98.242803 54.039755,97.0107 c -0.969037,-1.653535 -0.968779,-3.455811 7.3e-4,-5.110153 0.692381,-1.18146 2.516479,-3.020325 2.757241,-2.779563 0.06673,0.06672 -0.194836,0.725955 -0.581248,1.464954 -0.386412,0.738999 -0.765628,1.813789 -0.842702,2.388421 -0.118827,0.885921 -0.03102,1.1539 0.577455,1.762378 0.674515,0.674514 0.819776,0.708048 2.41984,0.558632 1.962481,-0.183259 3.268711,-0.72999 4.264347,-1.784868 0.385597,-0.408541 0.806811,-0.67746 0.93603,-0.597598 0.294089,0.181757 -0.01607,2.539597 -0.478072,3.634277 -0.724091,1.715696 -2.252321,2.760438 -4.303952,2.942305 -0.6834,0.06058 -1.550493,0.01019 -1.926872,-0.111986 z M 64.6303,93.067184 c 0.01975,-1.273307 -0.06039,-2.597081 -0.178089,-2.94172 -0.161679,-0.473441 -0.126355,-0.597767 0.144506,-0.508597 0.58532,0.192691 1.540155,2.122174 1.543777,3.119588 0.0034,0.935906 -0.833945,2.645834 -1.295654,2.645834 -0.141185,0 -0.234779,-1.009966 -0.21454,-2.315105 z m -7.833075,0.815799 c -0.681931,-0.681931 0.521588,-3.748636 1.939301,-4.941563 1.676754,-1.410895 4.262732,-1.50638 4.458294,-0.164618 0.10743,0.737086 -0.413289,2.636737 -0.722764,2.636737 -0.117126,0 -0.439768,-0.250976 -0.716984,-0.557723 -0.927199,-1.025974 -1.935068,-1.602274 -2.492658,-1.425302 -0.764313,0.242584 -1.583244,2.015553 -1.583244,3.427692 0,1.134974 -0.356969,1.549753 -0.881945,1.024777 z m 2.522361,-0.141111 c -0.853145,-0.853145 0.1132,-3.496196 1.017559,-2.783127 0.696501,0.549177 1.277855,1.555635 1.12646,1.950162 -0.07942,0.206958 -0.481241,0.550476 -0.892942,0.763376 -0.901404,0.466133 -0.857002,0.463664 -1.251077,0.06959 z M 52.12292,91.113506 c 0,-1.973849 1.872606,-4.690319 3.644257,-5.286491 1.990876,-0.669943 6.030734,-0.198048 5.921864,0.691732 -0.01781,0.145521 -0.599889,0.296376 -1.293518,0.335233 -2.829237,0.158494 -5.560728,1.582992 -7.028601,3.66548 -0.903455,1.281742 -1.244002,1.444363 -1.244002,0.594046 z"
         id="path11" /><path
         style="fill:#1b9129"
         d="m 58.355631,114.90258 c -0.544367,-0.77719 -0.554102,-1.83118 -0.015,-1.62431 0.218281,0.0838 0.396875,0.36311 0.396875,0.62076 0,1.52766 2.188713,1.31876 3.529604,-0.33688 1.323263,-1.63387 1.759109,-2.64193 2.001251,-4.62866 0.259611,-2.13005 0.151435,-2.5422 -0.606405,-2.31043 -0.307354,0.094 -0.767185,0.23654 -1.021846,0.31676 -0.843279,0.26564 -0.504464,-0.64084 0.463021,-1.23878 0.509323,-0.31478 0.926041,-0.72818 0.926041,-0.91868 0,-0.19049 0.386954,-0.40377 0.859896,-0.47396 0.472943,-0.0702 1.890312,-0.50054 3.14971,-0.95633 1.259398,-0.45579 3.75971,-1.09599 5.55625,-1.42268 2.947912,-0.53606 4.053353,-0.59156 11.336227,-0.56923 4.584322,0.0141 8.812597,0.15173 9.789583,0.31875 l 1.719792,0.29399 -2.116667,-0.12131 c -5.447965,-0.31225 -9.513983,-0.36429 -8.466666,-0.10837 0.582083,0.14224 2.308489,0.37054 3.836458,0.50733 5.561035,0.49785 10.736885,1.09277 11.641665,1.33811 l 0.92604,0.2511 -1.05833,-0.12602 c -7.897619,-0.9404 -9.405828,-1.03217 -16.933333,-1.03034 -8.659815,0.002 -11.427958,0.31265 -16.186342,1.81582 -3.164293,0.9996 -3.297816,1.15328 -3.349752,3.85554 -0.03671,1.9099 -0.160367,2.47565 -0.836822,3.82854 -1.00286,2.00568 -2.619066,3.30732 -4.106607,3.30732 -0.756957,0 -1.129805,-0.15282 -1.43464,-0.58804 z m 0.631694,-2.56691 c -0.371921,-0.11626 -1.830607,-0.99954 -3.241525,-1.96285 -1.410917,-0.96331 -2.86279,-1.82614 -3.226384,-1.91739 -1.250339,-0.31382 -0.694646,-0.9079 1.437463,-1.53677 0.790397,-0.23313 1.802428,-0.41006 2.248959,-0.39318 0.554741,0.021 0.644279,0.071 0.282707,0.15797 -0.991236,0.23843 -1.060216,0.60427 -0.119063,0.63146 0.502047,0.0145 1.210469,0.1217 1.574271,0.23821 0.62671,0.20071 0.616285,0.21322 -0.198438,0.23821 -1.210801,0.0371 -1.068232,0.43221 0.351655,0.97447 1.434726,0.54793 3.625473,2.56727 3.500546,3.22666 -0.09756,0.51492 -1.479578,0.69664 -2.610191,0.34321 z m 2.396011,-0.19351 c 0,-0.47928 -1.47667,-2.01089 -2.386037,-2.47481 -1.053208,-0.53731 -1.82086,-0.72654 -0.995239,-0.24534 0.250349,0.14591 0.579878,0.72839 0.732285,1.29438 0.202356,0.7515 0.47211,1.10035 1.000027,1.29327 0.854755,0.31236 1.648964,0.37618 1.648964,0.1325 z m 5.490104,-1.07392 c -0.254661,-0.0629 -0.463021,-0.21081 -0.463021,-0.32873 0,-0.24191 1.647608,-1.76303 2.648209,-2.44491 l 0.659083,-0.44914 -0.873035,-0.0139 c -0.480169,-0.008 -1.232381,0.17195 -1.671582,0.39907 -1.031124,0.53321 -1.405955,0.39688 -0.898955,-0.32696 0.631588,-0.90172 2.722803,-1.48169 4.27319,-1.18512 l 1.287048,0.2462 -1.455208,0.0609 c -1.171114,0.049 -1.300248,0.0944 -0.661458,0.23274 0.666085,0.14421 0.79375,0.29876 0.79375,0.96088 0,0.69646 0.08537,0.7832 0.727604,0.73923 0.400182,-0.0274 0.727604,-0.008 0.727604,0.0434 0,0.0513 -0.74414,0.50405 -1.653646,1.00622 -1.741714,0.96166 -2.674315,1.2491 -3.439583,1.06013 z m -5.118368,-1.46004 c -0.410319,-0.48092 -0.417943,-0.52409 -0.04101,-0.23218 0.743374,0.57567 0.595628,-0.29059 -0.228474,-1.33958 l -0.691494,-0.88019 0.823786,0.86407 c 0.46904,0.49197 0.823786,1.14711 0.823786,1.52135 0,0.80504 -0.05219,0.8101 -0.686597,0.0665 z m 60.281558,-0.8393 c -1.63845,-0.61749 -2.88861,-1.21797 -2.77813,-1.3344 0.11048,-0.11644 -0.0502,-0.13468 -0.35716,-0.0405 -0.66615,0.20432 -1.48611,-0.0592 -1.27036,-0.40833 0.0896,-0.14492 -0.15775,-0.17939 -0.59683,-0.0832 -0.574,0.12578 -0.65673,0.0982 -0.3529,-0.11764 0.32817,-0.23312 0.33199,-0.28263 0.022,-0.28598 -0.20615,-0.002 -0.31259,-0.0663 -0.23653,-0.14235 0.29348,-0.29348 8.68115,3.02917 8.68115,3.43891 0,0.0764 -0.0298,0.12935 -0.0661,0.11759 -0.0364,-0.0118 -1.40669,-0.52661 -3.04514,-1.14409 z m -49.540794,-0.15744 c 0.218281,-0.14107 0.515937,-0.25649 0.661458,-0.25649 0.145521,0 0.08599,0.11542 -0.132292,0.25649 -0.218281,0.14106 -0.515937,0.25648 -0.661458,0.25648 -0.145521,0 -0.08599,-0.11542 0.132292,-0.25648 z m -14.216318,-2.03544 c 0.257431,-0.0671 0.614618,-0.0627 0.79375,0.01 0.179131,0.0725 -0.03149,0.12736 -0.468057,0.12197 -0.436562,-0.005 -0.583124,-0.0647 -0.325693,-0.13177 z m 57.293792,0.003 c 0.19099,-0.0764 0.4192,-0.067 0.50712,0.0209 0.0879,0.0879 -0.0684,0.15045 -0.34727,0.13896 -0.30822,-0.0127 -0.37092,-0.0754 -0.15985,-0.15985 z m -1.85208,-0.52917 c 0.19099,-0.0764 0.41919,-0.067 0.50711,0.0209 0.0879,0.0879 -0.0684,0.15046 -0.34726,0.13897 -0.30823,-0.0127 -0.37092,-0.0754 -0.15985,-0.15986 z m 1.24023,-0.0838 c -0.33354,-0.14333 -0.38245,-0.22739 -0.13229,-0.22739 0.21828,0 0.635,0.10233 0.92604,0.22739 0.33354,0.14333 0.38245,0.22739 0.13229,0.22739 -0.21828,0 -0.635,-0.10232 -0.92604,-0.22739 z m -2.29857,-0.18074 c 0.191,-0.0764 0.4192,-0.067 0.50712,0.0209 0.0879,0.0879 -0.0684,0.15045 -0.34727,0.13896 -0.30822,-0.0127 -0.37092,-0.0754 -0.15985,-0.15985 z m -1.32291,-0.26458 c 0.19099,-0.0764 0.41919,-0.067 0.50711,0.0209 0.0879,0.0879 -0.0683,0.15045 -0.34726,0.13896 -0.30823,-0.0127 -0.37092,-0.0754 -0.15985,-0.15985 z m 0.1819,-0.51309 c -1.16417,-0.34506 -1.66527,-0.56192 -1.11355,-0.48191 1.11628,0.1619 4.25203,1.12681 3.62709,1.1161 -0.21828,-0.004 -1.34938,-0.28912 -2.51354,-0.63419 z m -1.24024,0.2485 c 0.191,-0.0764 0.4192,-0.067 0.50712,0.0209 0.0879,0.0879 -0.0683,0.15046 -0.34727,0.13897 -0.30822,-0.0127 -0.37091,-0.0754 -0.15985,-0.15986 z m -1.33945,-0.25907 c 0.1819,-0.0734 0.47956,-0.0734 0.66146,0 0.1819,0.0734 0.0331,0.13346 -0.33073,0.13346 -0.3638,0 -0.51263,-0.0601 -0.33073,-0.13346 z m -1.32292,-0.26458 c 0.1819,-0.0734 0.47956,-0.0734 0.66146,0 0.1819,0.0734 0.0331,0.13345 -0.33073,0.13345 -0.3638,0 -0.51263,-0.0601 -0.33073,-0.13345 z m -1.32291,-0.26458 c 0.1819,-0.0734 0.47955,-0.0734 0.66145,0 0.1819,0.0734 0.0331,0.13345 -0.33073,0.13345 -0.3638,0 -0.51263,-0.0601 -0.33072,-0.13345 z m -1.45018,-0.27271 c 0.25743,-0.0671 0.61462,-0.0627 0.79375,0.01 0.17913,0.0725 -0.0315,0.12736 -0.46805,0.12197 -0.43657,-0.005 -0.58313,-0.0647 -0.3257,-0.13177 z M 107.95,104.114 c -0.53174,-0.17029 -0.55768,-0.21336 -0.13229,-0.21961 0.29104,-0.004 0.76729,0.0945 1.05833,0.21961 0.67422,0.28972 -0.0214,0.28972 -0.92604,0 z m -4.9559,-0.18336 c 0.25743,-0.0671 0.61462,-0.0627 0.79375,0.01 0.17913,0.0725 -0.0315,0.12736 -0.46806,0.12197 -0.43656,-0.005 -0.58312,-0.0647 -0.32569,-0.13178 z m 1.38403,-0.51946 c -1.01865,-0.20706 -3.22131,-0.59791 -4.894795,-0.86856 -1.67349,-0.27065 -2.682513,-0.50406 -2.242273,-0.51869 0.840768,-0.0279 7.890018,1.15052 9.253728,1.54699 1.23558,0.35922 -0.0355,0.2633 -2.11666,-0.15974 z m 54.6405,-5.051869 c 0.003,-0.395697 0.0413,-0.405315 0.26054,-0.06615 0.24844,0.384444 0.29364,0.346092 0.3638,-0.30868 0.0396,-0.369237 0.69453,-0.636628 0.69453,-0.283542 0,0.27283 -0.86666,1.121389 -1.14531,1.121389 -0.0977,0 -0.17578,-0.20836 -0.17356,-0.463021 z M 165.1,98.135407 c -1.25478,-0.647756 -1.31076,-0.81992 -0.11932,-0.366935 0.60363,0.229498 0.68476,0.206641 0.5464,-0.153931 -0.0894,-0.232897 -0.1625,-1.953242 -0.1625,-3.82299 0,-3.315088 -0.0148,-3.40239 -0.59531,-3.514204 -0.51042,-0.09831 -0.49155,-0.1198 0.13229,-0.150694 l 0.72761,-0.03603 v 3.706756 c 0,3.379339 0.0467,3.746778 0.52916,4.159843 0.52854,0.45255 0.70576,0.896609 0.33073,0.828738 -0.10914,-0.01975 -0.73422,-0.312501 -1.38906,-0.650553 z M 95.514585,97.646862 c 0,-0.209693 0.09355,-0.439077 0.207887,-0.509742 0.114338,-0.07066 0.207887,0.100903 0.207887,0.381261 0,0.280357 -0.09355,0.509741 -0.207887,0.509741 -0.114338,0 -0.207887,-0.171567 -0.207887,-0.38126 z m 72.726665,-0.08176 c -0.32911,-0.419644 -0.31975,-0.429002 0.0999,-0.0999 0.39244,0.307779 0.53359,0.307779 0.92604,0 0.41964,-0.329107 0.429,-0.319749 0.0999,0.0999 -0.19972,0.254661 -0.45303,0.463021 -0.56291,0.463021 -0.10989,0 -0.3632,-0.20836 -0.56292,-0.463021 z m 4.25778,0.05493 c -0.2672,-0.321956 -0.27028,-0.475526 -0.0146,-0.727604 0.25375,-0.250157 0.40454,-0.210544 0.69469,0.182484 0.61089,0.82752 -0.0236,1.336113 -0.6801,0.54512 z m 0.63415,-0.25337 c -0.16102,-0.419622 -0.62485,-0.550556 -0.62485,-0.176388 0,0.2798 0.28921,0.573263 0.56496,0.573263 0.1167,0 0.14365,-0.178593 0.0599,-0.396875 z m 9.42932,0.429272 c 0,-0.127702 0.15308,-0.359232 0.34018,-0.514509 0.25735,-0.21358 0.34018,-0.157045 0.34018,0.232186 0,0.28298 -0.15308,0.51451 -0.34018,0.51451 -0.1871,0 -0.34018,-0.104484 -0.34018,-0.232187 z M 96.330384,97.694573 c 0.06063,-0.03793 0.407899,-0.305822 0.771701,-0.595312 l 0.661458,-0.526348 -0.504028,0.595313 c -0.277215,0.327422 -0.624481,0.595312 -0.771701,0.595312 -0.14722,0 -0.218064,-0.03103 -0.15743,-0.06896 z M 113.5103,97.565101 c 0.002,-0.109141 0.11602,-0.37553 0.25287,-0.591977 0.19555,-0.309288 0.23928,-0.266806 0.20423,0.198438 -0.0395,0.52463 -0.46729,0.892923 -0.4571,0.393539 z m 4.55215,-3.571875 -0.0583,-3.902604 h 0.79375 c 0.79253,0 0.79375,0.0024 0.79375,1.56586 0,0.861223 0.0708,1.783958 0.15725,2.050521 0.13078,0.40308 0.10919,0.417857 -0.12824,0.08779 -0.15702,-0.218282 -0.28732,-1.081485 -0.28954,-1.91823 -0.004,-1.336537 -0.0675,-1.521354 -0.52596,-1.521354 -0.49126,0 -0.52667,0.221353 -0.60318,3.770313 l -0.0813,3.770312 z m 3.64994,3.571875 c 0.002,-0.109141 0.13252,-0.377031 0.28954,-0.595313 0.24398,-0.339165 0.26478,-0.332032 0.1431,0.04905 -0.0783,0.24526 -2.5e-4,0.503751 0.17348,0.574425 0.17373,0.07067 0.10751,0.137897 -0.14716,0.149385 -0.25466,0.01149 -0.46119,-0.06841 -0.45896,-0.177549 z m 3.75839,-3.571875 -0.0583,-3.902604 H 126.20625 127 l -0.0583,3.902604 -0.0583,3.902604 -0.0813,-3.770312 c -0.0761,-3.530585 -0.114,-3.770313 -0.59592,-3.770313 -0.48191,0 -0.5198,0.239728 -0.59592,3.770313 l -0.0813,3.770312 z m 4.7625,0 -0.0583,-3.902604 0.8599,0.03964 c 0.78987,0.03642 0.80123,0.04856 0.13945,0.149175 l -0.72044,0.109532 -0.0812,3.753429 -0.0812,3.753429 z m 1.30641,3.241146 c 0,-0.363802 0.0601,-0.51263 0.13346,-0.330729 0.0734,0.181901 0.0734,0.479557 0,0.661458 -0.0734,0.181901 -0.13346,0.03307 -0.13346,-0.330729 z m 12.84219,-0.01512 c -0.11679,-0.446609 -0.0748,-0.488278 0.23373,-0.232187 0.42091,0.349324 0.49921,0.776474 0.14233,0.776474 -0.12855,0 -0.29777,-0.244929 -0.37606,-0.544287 z m 39.84372,-0.0644 c 0.32222,-0.334779 0.63474,-0.573634 0.69448,-0.530789 0.1544,0.11073 -0.80821,1.139476 -1.06622,1.139476 -0.11776,0 0.0495,-0.273909 0.37174,-0.608687 z M 84.999269,96.906979 c -0.03505,-0.465244 0.0087,-0.507726 0.204227,-0.198438 0.305863,0.483761 0.324735,0.790414 0.04864,0.790414 -0.114554,0 -0.228346,-0.266389 -0.252871,-0.591976 z m 3.900733,0.311778 c 0,-0.154109 0.119062,-0.206614 0.264583,-0.116677 0.145521,0.08994 0.264584,0.216026 0.264584,0.280198 0,0.06417 -0.119063,0.116677 -0.264584,0.116677 -0.145521,0 -0.264583,-0.126089 -0.264583,-0.280198 z m 12.303128,0.01561 c 0.0899,-0.145521 0.21602,-0.264584 0.28019,-0.264584 0.0642,0 0.11668,0.119063 0.11668,0.264584 0,0.145521 -0.12609,0.264583 -0.2802,0.264583 -0.15411,0 -0.20661,-0.119062 -0.11667,-0.264583 z m 3.84051,0.06615 c 0.002,-0.109141 0.11602,-0.37553 0.25287,-0.591977 0.19555,-0.309288 0.23927,-0.266806 0.20422,0.198438 -0.0395,0.52463 -0.46729,0.892923 -0.45709,0.393539 z m 9.86113,-0.410251 c 0.32222,-0.334778 0.63474,-0.573633 0.69448,-0.530789 0.1544,0.110731 -0.80821,1.139477 -1.06622,1.139477 -0.11777,0 0.0495,-0.273909 0.37174,-0.608688 z m 40.69112,0.189765 c 0.0127,-0.308225 0.0754,-0.37092 0.15985,-0.159853 0.0764,0.190996 0.067,0.419199 -0.0209,0.507118 -0.0879,0.08792 -0.15045,-0.06835 -0.13896,-0.347265 z m -79.073527,-3.351389 -0.05778,-3.638021 h 0.645843 c 0.355214,0 0.708798,0.101863 0.785743,0.226362 0.07694,0.1245 -0.150606,0.170829 -0.505668,0.102955 l -0.645567,-0.123408 -0.0824,3.535066 -0.0824,3.535066 z m 7.457709,2.910416 -0.504028,-0.595312 0.595312,0.504028 c 0.559447,0.473662 0.715762,0.686597 0.504028,0.686597 -0.05021,0 -0.318097,-0.267891 -0.595312,-0.595313 z m 16.051638,-0.101827 c -0.301609,-0.383427 -0.544755,-0.829911 -0.540329,-0.992187 0.0044,-0.162277 0.140154,-0.05692 0.30162,0.234119 0.161466,0.291041 0.473959,0.737526 0.694419,0.992187 0.22047,0.254661 0.3315,0.463021 0.24675,0.463021 -0.0847,0 -0.40086,-0.313713 -0.70246,-0.69714 z m 6.22761,0.18094 c 0.16153,-0.225413 0.4258,-0.647967 0.58727,-0.939008 0.16146,-0.291042 0.29719,-0.386978 0.30162,-0.213192 0.004,0.173786 -0.25985,0.59634 -0.58727,0.939009 -0.32742,0.342668 -0.46315,0.438604 -0.30162,0.213191 z m 13.14975,-0.939008 c 0.001,-0.873125 0.0509,-1.198415 0.10977,-0.722866 0.0589,0.475549 0.0577,1.189924 -0.003,1.5875 -0.0604,0.397576 -0.10855,0.0085 -0.10707,-0.864634 z m 4.03607,1.113068 c 0.0994,-0.260938 0.2473,-0.407782 0.32876,-0.32632 0.0815,0.08146 1.7e-4,0.294956 -0.18065,0.474432 -0.26131,0.259362 -0.2917,0.228971 -0.14811,-0.148112 z m 19.53701,-0.253173 -0.50402,-0.595312 0.59531,0.504028 c 0.55944,0.473662 0.71576,0.686597 0.50403,0.686597 -0.0502,0 -0.3181,-0.267891 -0.59532,-0.595313 z m 21.4269,-2.711979 c 4.6e-4,-1.891771 0.0426,-2.63096 0.0936,-1.642642 0.0511,0.988317 0.0507,2.53613 -8.4e-4,3.439583 -0.0515,0.903453 -0.0933,0.09483 -0.0928,-1.796941 z m -54.50596,0 c 5.3e-4,-1.74625 0.0433,-2.426193 0.0952,-1.510986 0.0518,0.915208 0.0514,2.343958 -9.5e-4,3.175 -0.0523,0.831043 -0.0947,0.08224 -0.0942,-1.664014 z m 46.77322,2.369919 c -0.4433,-0.972951 -0.35873,-1.180516 0.12061,-0.296007 0.22385,0.413048 0.35748,0.800504 0.29697,0.861014 -0.0605,0.06051 -0.24842,-0.193743 -0.41758,-0.565007 z m 11.79713,0.497561 c 0.1819,-0.0734 0.47955,-0.0734 0.66146,0 0.1819,0.0734 0.0331,0.133452 -0.33073,0.133452 -0.36381,0 -0.51263,-0.06005 -0.33073,-0.133452 z M 96.095332,96.043747 c 0.0054,-0.436563 0.06469,-0.583125 0.131773,-0.325694 0.06708,0.257431 0.06267,0.614619 -0.0098,0.79375 -0.07248,0.179132 -0.127362,-0.03149 -0.12197,-0.468056 z m 87.312498,0 c 0.005,-0.436563 0.0647,-0.583125 0.13177,-0.325694 0.0671,0.257431 0.0627,0.614619 -0.01,0.79375 -0.0725,0.179132 -0.12736,-0.03149 -0.12197,-0.468056 z m -69.33064,-0.132292 c 0,-0.363802 0.0601,-0.51263 0.13346,-0.330729 0.0734,0.181901 0.0734,0.479557 0,0.661458 -0.0734,0.181901 -0.13346,0.03307 -0.13346,-0.330729 z m 8.1812,0.110243 c 0.0127,-0.308224 0.0754,-0.370919 0.15985,-0.159852 0.0764,0.190996 0.067,0.419199 -0.0209,0.507118 -0.0879,0.08792 -0.15045,-0.06835 -0.13896,-0.347266 z M 84.687557,95.757115 c 0.0127,-0.308225 0.07539,-0.370919 0.159852,-0.159853 0.07643,0.190997 0.06703,0.4192 -0.02089,0.507119 -0.08792,0.08792 -0.150453,-0.06835 -0.138964,-0.347266 z M 105.62033,95.51458 c 0.005,-0.436562 0.0647,-0.583124 0.13178,-0.325693 0.0671,0.257431 0.0627,0.614618 -0.01,0.79375 -0.0725,0.179131 -0.12736,-0.03149 -0.12197,-0.468057 z m 69.13883,0.399906 c -0.0927,-0.149982 0.0135,-0.194339 0.24897,-0.103984 0.45837,0.175892 0.54224,0.365536 0.16165,0.365536 -0.13693,0 -0.32171,-0.117698 -0.41062,-0.261552 z M 89.518123,94.059372 c 0,-1.091406 0.0467,-1.537891 0.103786,-0.992188 0.05708,0.545703 0.05708,1.438672 0,1.984375 -0.05708,0.545703 -0.103786,0.09922 -0.103786,-0.992187 z m 11.329907,1.322917 c 0,-0.363803 0.0601,-0.512631 0.13345,-0.33073 0.0734,0.181901 0.0734,0.479558 0,0.661459 -0.0734,0.181901 -0.13345,0.03307 -0.13345,-0.330729 z m 30.81487,0.122063 c -0.0907,-0.23646 -0.14376,-1.461985 -0.11783,-2.723391 l 0.0471,-2.293464 0.15548,2.645833 c 0.16841,2.866045 0.16302,3.016845 -0.0848,2.371022 z m 23.23976,0.124917 c -0.0959,-0.155203 -0.11765,-0.338931 -0.0483,-0.408286 0.0694,-0.06936 0.1966,0.05763 0.28277,0.282186 0.17891,0.466224 0.0264,0.548232 -0.23447,0.1261 z m -11.18233,-0.643855 c 0.005,-0.436563 0.0647,-0.583125 0.13177,-0.325694 0.0671,0.257431 0.0627,0.614618 -0.01,0.79375 -0.0725,0.179131 -0.12736,-0.03149 -0.12197,-0.468056 z M 77.854226,94.456247 c 0.0029,-0.582083 0.05712,-0.789055 0.120406,-0.459936 0.06329,0.329118 0.06088,0.805368 -0.0053,1.058333 -0.06622,0.252965 -0.118003,-0.01631 -0.115066,-0.598397 z m 19.195081,0.495288 c -0.236915,-0.236915 -0.75365,-0.466199 -1.1483,-0.509521 -0.394651,-0.04332 -0.826683,-0.187904 -0.960073,-0.321293 -0.301133,-0.301133 0.421582,-0.942076 1.120311,-0.993553 0.397828,-0.02931 0.439574,0.03882 0.200391,0.327014 -0.238111,0.286907 -0.11101,0.52745 0.599892,1.135318 0.496109,0.424206 0.838232,0.776122 0.760274,0.782036 -0.07796,0.0059 -0.33558,-0.183087 -0.572495,-0.420001 z m -1.37487,-1.349672 c -0.268953,-0.268953 -0.490867,0.135967 -0.270197,0.49302 0.166697,0.269721 0.229018,0.269929 0.318639,0.0011 0.06128,-0.183828 0.03948,-0.406167 -0.04844,-0.494086 z m 26.183203,1.328816 c -0.14359,-0.377084 -0.1132,-0.407475 0.14811,-0.148113 0.18082,0.179476 0.26211,0.39297 0.18065,0.474432 -0.0815,0.08146 -0.2294,-0.06538 -0.32876,-0.326319 z m 1.46476,-0.155736 c -0.33468,-0.557294 -0.32904,-0.562932 0.12655,-0.126558 0.26227,0.251196 0.41989,0.513672 0.35029,0.583279 -0.0696,0.06961 -0.28419,-0.135917 -0.47684,-0.456721 z m -40.222343,-0.07616 c 0.0127,-0.308225 0.07539,-0.37092 0.159852,-0.159853 0.07643,0.190996 0.06703,0.419199 -0.02089,0.507118 -0.08792,0.08792 -0.150453,-0.06835 -0.138964,-0.347265 z m 16.190758,-0.63941 c 0,-0.654844 0.0516,-0.922735 0.114662,-0.595313 0.06306,0.327422 0.06306,0.863203 0,1.190625 -0.06306,0.327422 -0.114662,0.05953 -0.114662,-0.595312 z m 7.941115,-0.132292 c 0.002,-0.727604 0.0534,-0.993858 0.11418,-0.591674 0.0608,0.402183 0.0592,0.997495 -0.004,1.322916 -0.0628,0.325421 -0.11256,-0.0036 -0.11057,-0.731242 z m 34.91604,0.264584 c 0.003,-0.582084 0.0571,-0.789055 0.12041,-0.459936 0.0633,0.329118 0.0609,0.805368 -0.005,1.058333 -0.0662,0.252965 -0.118,-0.01631 -0.11507,-0.598397 z m 33.29734,0.318696 c -0.33468,-0.557294 -0.32904,-0.562933 0.12656,-0.126559 0.26226,0.251197 0.41989,0.513673 0.35028,0.58328 -0.0696,0.06961 -0.28418,-0.135917 -0.47684,-0.456721 z M 91.083392,93.92708 c 0.0029,-0.582083 0.05712,-0.789054 0.120406,-0.459936 0.06329,0.329119 0.06088,0.805369 -0.0053,1.058333 -0.06622,0.252965 -0.118003,-0.01631 -0.115066,-0.598397 z m 82.615568,0.132292 c -0.22576,-0.436563 -0.35094,-0.79375 -0.27817,-0.79375 0.0728,0 0.317,0.357187 0.54275,0.79375 0.22576,0.436562 0.35093,0.79375 0.27817,0.79375 -0.0728,0 -0.317,-0.357188 -0.54275,-0.79375 z m 10.11821,0.506801 c -0.25581,-0.148972 -0.56974,-0.206193 -0.69762,-0.127159 -0.12788,0.07903 -0.38383,-0.03863 -0.56878,-0.261477 -0.40437,-0.48724 -0.0238,-0.987983 0.79677,-1.048438 0.42911,-0.03161 0.46973,0.03213 0.21561,0.33832 -0.25056,0.301906 -0.18358,0.476821 0.33531,0.875604 0.704,0.541051 0.66211,0.65606 -0.0813,0.22315 z m -0.7255,-0.654708 c 0,-0.226869 -0.12101,-0.337705 -0.2689,-0.246301 -0.1479,0.0914 -0.2004,0.277025 -0.11668,0.41249 0.22681,0.366989 0.38558,0.298559 0.38558,-0.166189 z m -69.89501,0.225419 c -0.18262,-0.219665 -0.13444,-0.506486 0.15434,-0.918768 0.23091,-0.329672 0.41983,-0.441111 0.41983,-0.247641 0,0.217447 0.16583,0.288127 0.4343,0.185106 0.37454,-0.143724 0.38502,-0.107273 0.0761,0.264907 -0.3055,0.368105 -0.28958,0.481718 0.1083,0.772654 0.42235,0.308832 0.40056,0.337403 -0.23046,0.302098 -0.38332,-0.02145 -0.81642,-0.182707 -0.96245,-0.358356 z m 0.41054,-0.488129 c 0.0904,-0.235459 0.046,-0.341662 -0.10398,-0.248968 -0.14385,0.08891 -0.26155,0.273684 -0.26155,0.410616 0,0.380586 0.18964,0.296721 0.36553,-0.161648 z m 42.13278,0.53268 c -0.25532,-0.665346 -0.18,-0.837024 0.1319,-0.300656 0.15444,0.265576 0.22506,0.538601 0.15693,0.606723 -0.0681,0.06812 -0.19809,-0.06961 -0.28883,-0.306067 z m -44.5732,-0.386646 c 0,-0.363803 0.0601,-0.512631 0.13345,-0.33073 0.0734,0.181901 0.0734,0.479558 0,0.661459 -0.0734,0.181901 -0.13345,0.03307 -0.13345,-0.330729 z m 42.74134,-0.582084 c -0.25647,-0.446878 -0.41184,-0.866975 -0.34527,-0.933549 0.0666,-0.06657 0.3172,0.258273 0.55694,0.721883 0.56678,1.096038 0.39467,1.26815 -0.21167,0.211666 z m -74.100916,0.260341 c 0.109366,-0.176958 0.291046,-0.742505 0.403733,-1.256771 0.192373,-0.877929 0.198718,-0.86516 0.10389,0.209109 -0.08141,0.92225 -0.02573,1.115257 0.287082,0.995218 0.217686,-0.08353 0.317103,-0.03408 0.226428,0.112634 -0.08891,0.143854 -0.399773,0.261553 -0.690815,0.261553 -0.348076,0 -0.461117,-0.110107 -0.330318,-0.321743 z m 94.685506,-0.472007 c -0.22576,-0.436563 -0.35094,-0.79375 -0.27817,-0.79375 0.0728,0 0.317,0.357187 0.54275,0.79375 0.22576,0.436562 0.35093,0.79375 0.27817,0.79375 -0.0728,0 -0.317,-0.357188 -0.54275,-0.79375 z m -91.392653,0.110243 c 0.0127,-0.308225 0.07539,-0.37092 0.159852,-0.159853 0.07643,0.190996 0.06703,0.419199 -0.02089,0.507118 -0.08792,0.08792 -0.150453,-0.06835 -0.138964,-0.347265 z m 60.610473,-0.110243 c 0,-0.363803 0.06,-0.512631 0.13345,-0.33073 0.0734,0.181901 0.0734,0.479558 0,0.661459 -0.0734,0.181901 -0.13345,0.03307 -0.13345,-0.330729 z m -42.8527,-0.396875 c 0.005,-0.436563 0.0647,-0.583125 0.13178,-0.325694 0.0671,0.257431 0.0627,0.614618 -0.01,0.79375 -0.0725,0.179131 -0.12736,-0.03149 -0.12197,-0.468056 z m 4.7527,-0.132292 c 0,-0.363802 0.0601,-0.51263 0.13345,-0.330729 0.0734,0.181901 0.0734,0.479557 0,0.661458 -0.0734,0.181901 -0.13345,0.03307 -0.13345,-0.330729 z m 29.22736,0.122063 c -0.25531,-0.665346 -0.17999,-0.837024 0.13191,-0.300656 0.15443,0.265576 0.22505,0.538601 0.15693,0.606723 -0.0681,0.06812 -0.1981,-0.06961 -0.28884,-0.306067 z M 84.687557,92.317532 c 0.0127,-0.308225 0.07539,-0.37092 0.159852,-0.159853 0.07643,0.190996 0.06703,0.419199 -0.02089,0.507118 -0.08792,0.08792 -0.150453,-0.06835 -0.138964,-0.347265 z m 11.087999,-0.308681 c -0.002,-0.400182 -0.0754,-0.995495 -0.163151,-1.322917 -0.124739,-0.465463 -0.05181,-0.590756 0.334342,-0.574424 0.271634,0.01149 0.360225,0.07588 0.19687,0.143101 -0.186546,0.07676 -0.247551,0.561013 -0.164028,1.302028 0.07314,0.648899 0.05797,1.179816 -0.03372,1.179816 -0.09169,0 -0.168327,-0.327422 -0.170313,-0.727604 z m 19.271764,0.02006 c 0.1129,-0.553762 0.17944,-0.620294 0.25654,-0.25654 0.0572,0.270118 -0.0113,0.606568 -0.15244,0.747665 -0.16567,0.165666 -0.20254,-0.0083 -0.1041,-0.491125 z m 68.04435,-0.103601 c 0,-0.446129 -0.12326,-1.041442 -0.2739,-1.322917 -0.23449,-0.438155 -0.18692,-0.508767 0.33073,-0.490884 0.33254,0.01149 0.47097,0.07588 0.30761,0.143101 -0.18654,0.07676 -0.24755,0.561013 -0.16402,1.302028 0.0731,0.648899 0.058,1.179816 -0.0337,1.179816 -0.0917,0 -0.1667,-0.365015 -0.1667,-0.811144 z M 81.512557,92.052948 c 0.0127,-0.308224 0.07539,-0.370919 0.159852,-0.159852 0.07643,0.190996 0.06703,0.419199 -0.02089,0.507118 -0.08792,0.08792 -0.150452,-0.06835 -0.138964,-0.347266 z m 1.831195,0.169955 c 0,-0.136932 0.117699,-0.32171 0.261553,-0.410616 0.149982,-0.09269 0.194338,0.01351 0.103984,0.248968 -0.175893,0.458369 -0.365537,0.542234 -0.365537,0.161648 z m 23.432638,-0.202641 c -0.14359,-0.377084 -0.1132,-0.407475 0.14811,-0.148112 0.18082,0.179475 0.26211,0.39297 0.18065,0.474431 -0.0815,0.08146 -0.2294,-0.06538 -0.32876,-0.326319 z m 7.03622,-0.07756 c 0,-0.363802 0.06,-0.51263 0.13345,-0.330729 0.0734,0.181901 0.0734,0.479557 0,0.661458 -0.0734,0.181901 -0.13345,0.03307 -0.13345,-0.330729 z m 29.0545,-0.249848 c 0.15143,-0.282937 0.40609,-0.595252 0.56592,-0.694034 0.15984,-0.09878 0.086,0.132712 -0.16414,0.514431 -0.5296,0.808265 -0.80383,0.930856 -0.40178,0.179603 z m 29.37664,-0.279318 c -0.15576,-0.291042 -0.22367,-0.529167 -0.15091,-0.529167 0.0728,0 0.25973,0.238125 0.41549,0.529167 0.15576,0.291041 0.22367,0.529166 0.15091,0.529166 -0.0728,0 -0.25973,-0.238125 -0.41549,-0.529166 z M 88.948144,91.016664 c -0.244423,-0.536451 -0.230399,-0.661459 0.07421,-0.661459 0.206573,0 0.460542,0.137459 0.564375,0.305464 0.122688,0.198513 0.07191,0.233231 -0.145023,0.09916 -0.245535,-0.151749 -0.286615,-0.05761 -0.155342,0.355995 0.24487,0.771518 0.02975,0.70845 -0.338217,-0.09916 z m 16.217406,0.112352 c -0.21967,-0.692109 0.0447,-0.981648 0.47376,-0.518919 0.26118,0.281658 0.25464,0.311135 -0.0328,0.147665 -0.27256,-0.155035 -0.31608,-0.06877 -0.18061,0.35806 0.0982,0.309265 0.11894,0.5623 0.0462,0.5623 -0.0728,0 -0.21072,-0.247098 -0.30657,-0.549106 z M 84.365251,90.900075 c 0.70066,-0.611197 1.095168,-0.696279 1.095168,-0.236189 0,0.169774 -0.07979,0.228888 -0.177317,0.131363 -0.09753,-0.09752 -0.484478,0.0088 -0.859896,0.23619 l -0.682579,0.413506 z m 12.498813,-0.09388 c -0.334677,-0.557294 -0.329038,-0.562932 0.126558,-0.126558 0.262262,0.251196 0.419889,0.513672 0.350282,0.583279 -0.06961,0.06961 -0.284186,-0.135917 -0.47684,-0.456721 z m 47.510456,0.233213 c 0.13617,-0.387628 0.0898,-0.456105 -0.19779,-0.291914 -0.29181,0.16662 -0.30702,0.140129 -0.0681,-0.118654 0.51514,-0.557992 0.95779,-0.20823 0.49468,0.390878 -0.38361,0.496263 -0.39659,0.49738 -0.22878,0.01969 z m 39.80204,-0.233213 c -0.33468,-0.557294 -0.32904,-0.562932 0.12656,-0.126558 0.26226,0.251196 0.41989,0.513672 0.35028,0.583279 -0.0696,0.06961 -0.28418,-0.135917 -0.47684,-0.456721 z M 79.817001,90.774264 c -0.189031,-0.492607 0.526215,-0.570947 1.145501,-0.125465 0.325162,0.233904 0.30508,0.255457 -0.111138,0.119279 -0.279407,-0.09142 -0.59026,-0.03313 -0.690784,0.129517 -0.122447,0.198123 -0.235846,0.157417 -0.343579,-0.123331 z m 69.011119,0.110108 c -0.0899,-0.145521 -0.0374,-0.264583 0.11668,-0.264583 0.15411,0 0.2802,0.119062 0.2802,0.264583 0,0.145521 -0.0525,0.264583 -0.11668,0.264583 -0.0642,0 -0.19026,-0.119062 -0.2802,-0.264583 z M 101.00957,90.57522 c 0.15375,-0.153751 0.43572,-0.227488 0.6266,-0.163861 0.19816,0.06605 0.0782,0.185987 -0.27954,0.279546 -0.4401,0.115087 -0.5434,0.08065 -0.34706,-0.115685 z m 34.03597,-0.01496 c 0.0891,-0.43975 1.54691,-0.43975 1.63601,0 0.0376,0.185539 0.008,0.215305 -0.0661,0.06615 -0.074,-0.149159 -0.41231,-0.271198 -0.75186,-0.271198 -0.33955,0 -0.67788,0.122039 -0.75186,0.271198 -0.074,0.149159 -0.10373,0.119393 -0.0661,-0.06615 z m 38.25654,0.0736 c 0,-0.224496 -0.26294,-0.300119 -0.77977,-0.224264 -0.42888,0.06295 -0.71951,0.01693 -0.64585,-0.102262 0.19447,-0.314662 1.36402,-0.265848 1.56879,0.06548 0.0959,0.155203 0.10295,0.35364 0.0156,0.440972 -0.0873,0.08733 -0.15879,0.0064 -0.15879,-0.179924 z m -63.16423,-0.462005 c 0.25743,-0.06708 0.61462,-0.06267 0.79375,0.0098 0.17913,0.07248 -0.0315,0.127362 -0.46806,0.12197 -0.43656,-0.0054 -0.58312,-0.06469 -0.32569,-0.131774 z m 21.53646,-1.845118 c -0.26895,-0.268951 -0.21037,-0.617361 0.10381,-0.617361 0.1541,0 0.21289,0.108893 0.13064,0.241985 -0.0823,0.133092 1e-5,0.302286 0.18282,0.375987 0.1838,0.0741 0.20425,0.143339 0.0457,0.15489 -0.15765,0.01149 -0.36601,-0.05849 -0.46302,-0.155501 z m 3.03829,-0.07497 c 0.1137,-0.341084 0.4766,-0.402353 0.50933,-0.08599 0.0109,0.105503 -0.12303,0.239448 -0.29766,0.297656 -0.17462,0.05821 -0.26987,-0.03704 -0.21167,-0.211666 z"
         id="path10" /><path
         style="fill:#137514"
         d="m 59.734372,112.00966 c -0.527917,-0.19292 -0.797671,-0.54177 -1.000027,-1.29327 -0.152407,-0.56599 -0.481936,-1.14847 -0.732285,-1.29438 -0.825621,-0.4812 -0.05797,-0.29197 0.995239,0.24534 0.909367,0.46392 2.386037,1.99553 2.386037,2.47481 0,0.24368 -0.794209,0.17986 -1.648964,-0.1325 z m 1.119798,-3.1858 c -1.330019,-0.84822 -3.388155,-1.53532 -4.598856,-1.53532 -0.633159,0 -0.731029,-0.0676 -0.472325,-0.32632 0.48992,-0.48992 3.290047,-0.34236 4.450758,0.23454 1.013411,0.50369 2.080209,1.69869 1.908382,2.13772 -0.05353,0.13678 -0.633116,-0.093 -1.287959,-0.51062 z m 9.752126,0.14701 c -0.0206,-0.12492 -0.05037,-0.52266 -0.06615,-0.88387 -0.02207,-0.50526 -0.211775,-0.69638 -0.822439,-0.82859 -0.61262,-0.13263 -0.461679,-0.17741 0.661458,-0.19621 0.893616,-0.015 1.86364,0.16211 2.513542,0.45883 l 1.058333,0.4832 -1.042894,0.44359 c -1.422627,0.60511 -2.257051,0.79471 -2.301854,0.52305 z m 43.310734,-2.90414 c -3.00025,-0.80582 -7.76976,-1.7678 -12.18474,-2.45757 -3.284003,-0.51308 -5.875532,-0.80545 -12.038538,-1.35817 -1.527969,-0.13703 -3.254375,-0.35564 -3.836458,-0.48579 -0.945112,-0.21133 -0.83189,-0.23955 1.058333,-0.26382 5.23071,-0.0672 15.252333,1.24416 22.057983,2.88628 5.16754,1.24687 9.12026,2.45203 7.68559,2.3433 -0.20615,-0.0156 -1.44013,-0.31453 -2.74217,-0.66423 z m 45.36214,-7.745717 c 0,-0.129952 0.19543,-0.311271 0.43429,-0.402932 0.36314,-0.139348 0.37951,-0.100631 0.0999,0.236276 -0.38103,0.459117 -0.53419,0.506899 -0.53419,0.166656 z m 5.73896,-0.533519 c -0.42668,-0.155259 -0.48423,-0.568868 -0.52917,-3.803282 -0.0452,-3.256757 -0.004,-3.629075 0.39866,-3.629043 0.39761,3.2e-5 0.45825,0.432047 0.52916,3.770349 0.044,2.073672 0.0801,3.785132 0.0801,3.803246 0,0.01811 -0.21543,-0.04546 -0.47874,-0.14127 z M 76.70712,97.654179 c -0.06063,-0.06015 -0.07403,-1.727023 -0.02978,-3.704167 0.07515,-3.357526 0.114447,-3.594807 0.595313,-3.594807 0.485559,0 0.514848,0.210727 0.514848,3.704167 0,3.41553 -0.0378,3.704166 -0.485069,3.704166 -0.266788,0 -0.534679,-0.04921 -0.595312,-0.109359 z m 19.210057,-0.353661 c 0.449057,-1.068333 0.423127,-1.688052 -0.108317,-2.588782 -0.635494,-1.077083 -0.661508,-1.181531 -0.294275,-1.181531 0.145521,0 0.26917,0.148828 0.274775,0.330729 0.0056,0.181901 0.392559,0.570463 0.859896,0.863471 1.140578,0.715112 1.262197,1.721987 0.299468,2.479269 -0.865973,0.681175 -1.294054,0.721364 -1.031547,0.09684 z m 14.137723,0.396875 c -0.006,-0.03638 -0.0362,-1.703275 -0.0661,-3.704211 -0.054,-3.612544 -0.0502,-3.638065 0.54093,-3.638021 0.58901,4.4e-5 0.59531,0.03926 0.59531,3.704211 0,3.527778 -0.0252,3.704166 -0.52917,3.704166 -0.29104,0 -0.53446,-0.02976 -0.54093,-0.06614 z m 8.21385,-3.619619 c 0,-3.54618 0.0251,-3.722569 0.52917,-3.722569 0.57038,0 0.6034,0.302126 0.57838,5.291667 -0.009,1.800617 -0.0608,1.992204 -0.55875,2.068923 -0.53334,0.08217 -0.5488,-0.02029 -0.5488,-3.638021 z m 7.40833,-0.0184 c 0,-3.527778 0.0252,-3.704167 0.52917,-3.704167 0.50397,0 0.52917,0.176389 0.52917,3.704167 0,3.527778 -0.0252,3.704166 -0.52917,3.704166 -0.50397,0 -0.52917,-0.176388 -0.52917,-3.704166 z m 4.7625,0 c 0,-3.664789 0.006,-3.704173 0.59532,-3.704774 0.57943,-5.92e-4 0.59305,0.06268 0.51063,2.371632 -0.0466,1.304731 0.0224,2.563489 0.15317,2.79724 0.35172,0.628497 -0.22,2.240068 -0.79469,2.240068 -0.42073,0 -0.46443,-0.348509 -0.46443,-3.704166 z m 4.71977,0.727604 c -0.12088,-4.017737 -0.0523,-4.431771 0.73422,-4.431771 h 0.63143 v 3.704167 3.704166 h -0.63805 c -0.63122,0 -0.63901,-0.03183 -0.7276,-2.976562 z m 20.60397,2.38125 c -0.19214,-0.829202 -1.75585,-4.514088 -2.03477,-4.794956 -0.23065,-0.232255 0.19759,-1.488898 0.50738,-1.488898 0.16304,0 2.92657,6.310726 2.92657,6.683054 0,0.107862 -0.28378,0.196112 -0.63061,0.196112 -0.43671,0 -0.67304,-0.183051 -0.76857,-0.595312 z m 12.69358,0.424436 c -0.34504,-0.345043 -0.18031,-0.622874 0.36931,-0.622874 0.30791,0 0.50499,0.138686 0.44649,0.314193 -0.12888,0.386647 -0.57067,0.55381 -0.8158,0.308681 z m 4.22782,-0.0055 c -0.25286,-0.252862 -0.2175,-0.617362 0.0599,-0.617362 0.12995,0 0.30481,0.178594 0.38857,0.396875 0.15476,0.403298 -0.12708,0.541866 -0.44846,0.220487 z m 10.54495,-0.286632 c 0.44641,-1.062026 0.42323,-1.687876 -0.095,-2.566257 -0.31037,-0.526029 -0.43723,-0.991626 -0.29428,-1.079978 0.13821,-0.08542 0.2513,0.02229 0.2513,0.239353 0,0.217063 0.23742,0.470014 0.5276,0.562114 1.39984,0.444293 1.70143,1.631971 0.67505,2.658357 -0.76385,0.763843 -1.35054,0.866568 -1.06465,0.186411 z m -69.14742,-0.615937 c 0.20715,-0.594214 0.20075,-0.996863 -0.0237,-1.489399 -0.16915,-0.371264 -0.26008,-0.722502 -0.20205,-0.780529 0.18127,-0.181271 1.5018,0.412136 1.5018,0.674864 0,0.137221 0.0702,0.432529 0.15609,0.656241 0.0921,0.239923 -0.12004,0.682868 -0.51714,1.079973 -0.92342,0.923416 -1.26763,0.870319 -0.91503,-0.14115 z m 8.19222,0.0283 c 0.2125,-0.609568 0.1797,-0.975156 -0.14605,-1.62815 -0.53723,-1.076897 -0.53384,-1.094095 0.17523,-0.887905 0.75698,0.220126 1.52135,1.096329 1.52135,1.743942 0,0.590552 -0.89514,1.558188 -1.44144,1.558188 -0.30995,0 -0.33078,-0.150116 -0.10909,-0.786075 z m 21.14577,0.07731 c -1.43477,-1.293132 -1.4347,-3.858011 1.4e-4,-5.394012 0.96484,-1.032861 1.18181,-0.910747 0.64872,0.365113 -0.22019,0.526993 -0.40035,1.561129 -0.40035,2.298081 0,0.736952 0.18016,1.771088 0.40035,2.29808 0.22019,0.526993 0.35062,1.007896 0.28984,1.068674 -0.0608,0.06078 -0.4832,-0.225393 -0.9387,-0.635936 z M 84.208983,96.639059 c -1.309013,-1.417046 -1.262569,-4.058485 0.09523,-5.416288 0.784151,-0.784152 1.007383,-0.677331 0.634438,0.303589 -0.344825,0.906958 -0.353781,4.13551 -0.01395,5.029329 0.318394,0.837439 0.01365,0.872937 -0.71572,0.08337 z m 5.13621,0 c 0.275237,-0.757636 0.281505,-4.330336 0.0093,-5.305536 -0.187561,-0.671976 -0.159795,-0.716232 0.296241,-0.47217 1.420237,0.760089 1.759162,3.912301 0.596247,5.545465 -0.692752,0.97288 -1.220205,1.108716 -0.901796,0.232241 z m 11.139187,0.132292 c -1.48316,-1.700329 -1.348856,-4.503763 0.27886,-5.820833 0.69975,-0.566209 0.8683,-0.365441 0.42038,0.500744 -0.32392,0.626386 -0.40166,1.327943 -0.3152,2.844271 0.0631,1.107039 0.20675,2.221157 0.31919,2.475818 0.11474,0.259883 0.0939,0.463021 -0.0475,0.463021 -0.13854,0 -0.43363,-0.20836 -0.65577,-0.463021 z m 5.11902,-0.316385 c 0.30609,-0.878044 0.19403,-4.587085 -0.16323,-5.402937 -0.192,-0.438447 -0.15273,-0.459812 0.35031,-0.190594 1.41653,0.758107 1.84714,3.732138 0.77046,5.321224 -0.8207,1.211279 -1.33595,1.357805 -0.95754,0.272307 z m 67.91518,-3.118727 c -0.77392,-1.416369 -1.44681,-2.666525 -1.49532,-2.778125 -0.0485,-0.1116 0.20494,-0.202909 0.56322,-0.202909 0.47591,0 0.74096,0.216199 0.9838,0.802482 0.18282,0.441365 0.7353,1.471567 1.22774,2.289339 0.82853,1.375915 0.98594,2.464429 0.35637,2.464429 -0.12578,0 -0.8619,-1.158847 -1.63581,-2.575216 z m -60.27691,0.631491 c 0,-0.0504 0.19721,-0.486957 0.43824,-0.970121 0.35621,-0.71403 0.38183,-1.027933 0.13689,-1.676849 -0.38074,-1.008706 -0.23625,-1.151096 0.60724,-0.59842 0.76695,0.502525 0.8947,1.544085 0.25387,2.069829 -0.22871,0.187639 -0.64543,0.549521 -0.92604,0.804182 -0.28061,0.254661 -0.5102,0.421782 -0.5102,0.371379 z M 80.287048,92.074738 c -0.0077,-0.800222 0.07309,-1.454949 0.179539,-1.454949 0.416821,0 1.025082,0.863488 1.025082,1.455208 0,0.582611 -0.606618,1.455532 -1.011086,1.454949 -0.09875,-1.42e-4 -0.185837,-0.654986 -0.193535,-1.455208 z M 95.91146,91.810414 c 0,-1.585977 0.341216,-1.86958 1.04333,-0.867171 0.544347,0.777164 0.519544,1.15638 -0.117288,1.793212 -0.795241,0.795241 -0.926042,0.664441 -0.926042,-0.926041 z m 87.3125,0 c 0,-1.585977 0.34121,-1.86958 1.04333,-0.867171 0.54434,0.777164 0.51954,1.15638 -0.11729,1.793212 -0.79524,0.795241 -0.92604,0.664441 -0.92604,-0.926041 z"
         id="path9" /></g></g></svg>
