<?xml version="1.0" standalone="no"?>
<!DOCTYPE svg PUBLIC "-//W3C//DTD SVG 20010904//EN"
 "http://www.w3.org/TR/2001/REC-SVG-20010904/DTD/svg10.dtd">
<svg version="1.0" xmlns="http://www.w3.org/2000/svg"
 width="640.000000pt" height="640.000000pt" viewBox="0 0 640.000000 640.000000"
 preserveAspectRatio="xMidYMid meet">

<g transform="translate(0.000000,640.000000) scale(0.100000,-0.100000)"
fill="#000000" stroke="none">
<path d="M971 3619 c-45 -9 -86 -31 -109 -58 -27 -33 -62 -117 -62 -150 l0
-33 33 48 c57 86 176 144 294 144 56 0 64 2 54 14 -16 19 -97 46 -135 45 -17
-1 -51 -5 -75 -10z"/>
<path d="M1236 3578 c12 -5 27 -20 33 -32 6 -11 29 -43 51 -71 80 -100 90
-206 32 -345 -18 -40 -30 -76 -27 -78 7 -7 104 58 124 84 10 13 22 20 26 16 5
-4 5 -2 2 4 -4 6 1 20 9 30 9 10 12 13 8 5 -5 -9 -3 -12 4 -7 20 12 14 90 -9
119 l-20 26 21 30 22 29 -20 45 c-23 53 -78 97 -156 125 -60 23 -135 37 -100
20z"/>
<path d="M3790 3530 c0 -26 29 -40 83 -40 55 0 100 30 79 52 -11 11 -17 8 -36
-14 -27 -35 -60 -36 -82 -3 -19 30 -44 33 -44 5z"/>
<path d="M1108 3528 c-48 -13 -91 -55 -117 -114 -24 -52 -27 -94 -9 -112 21
-21 24 -13 20 46 -3 44 0 61 11 71 9 7 13 19 10 27 -3 8 -2 14 3 12 5 -1 19 3
32 10 31 18 55 8 97 -40 19 -23 36 -40 38 -37 2 2 9 19 16 38 32 95 0 126
-101 99z"/>
<path d="M942 3464 c-112 -98 -129 -212 -46 -304 19 -21 55 -47 80 -56 61 -23
134 -8 189 41 21 19 35 35 30 35 -5 0 -2 6 7 13 9 6 18 24 22 39 9 37 18 138
12 138 -2 0 -13 -15 -24 -34 -26 -44 -93 -76 -179 -83 -60 -5 -71 -3 -96 17
-25 20 -28 28 -25 74 2 34 7 50 16 49 6 -2 12 1 12 6 0 5 15 32 34 60 19 28
31 51 28 51 -4 0 -31 -21 -60 -46z"/>
<path d="M1267 3455 c4 -22 7 -80 6 -130 -2 -71 0 -86 9 -70 6 11 19 28 29 38
33 31 18 112 -32 175 l-21 27 9 -40z"/>
<path d="M1693 3450 c15 -10 17 -28 17 -150 0 -101 -3 -140 -12 -143 -7 -3 19
-5 57 -5 39 0 60 3 48 5 -21 4 -23 10 -23 68 l0 64 48 7 c56 7 77 21 92 58 12
32 -7 79 -37 91 -10 4 -61 9 -113 12 -72 3 -91 1 -77 -7z m153 -39 c16 -32 3
-84 -26 -98 -13 -6 -28 -10 -32 -7 -9 6 -11 128 -2 137 11 10 49 -10 60 -32z"/>
<path d="M2040 3442 c-41 -20 -80 -89 -80 -140 0 -119 133 -197 240 -140 58
32 83 74 83 145 0 61 -18 93 -73 131 -41 27 -119 30 -170 4z m135 -16 c39 -39
46 -159 14 -229 -28 -62 -113 -54 -136 13 -15 44 -16 140 -2 177 25 66 79 83
124 39z"/>
<path d="M2331 3410 l1 -45 9 33 c18 60 89 64 103 6 11 -41 -11 -83 -48 -93
-23 -7 -25 -9 -10 -10 54 -2 83 -66 55 -119 -14 -27 -65 -30 -99 -6 -12 8 -22
11 -22 6 0 -14 63 -42 94 -42 38 0 93 25 105 48 26 49 -4 111 -53 113 -20 0
-20 1 -2 12 63 39 75 91 29 127 -23 18 -38 21 -95 18 l-68 -3 1 -45z"/>
<path d="M2665 3451 c-35 -15 -75 -62 -86 -104 -21 -78 14 -156 84 -187 53
-25 91 -25 144 0 49 22 80 66 89 127 8 58 -27 129 -76 155 -36 19 -119 23
-155 9z m129 -34 c29 -39 31 -188 3 -229 -31 -45 -90 -45 -124 1 -17 22 -27
112 -18 167 13 90 92 124 139 61z"/>
<path d="M2948 3450 c21 -9 22 -14 22 -149 0 -124 -2 -140 -17 -145 -10 -3 32
-4 94 -3 103 2 114 4 137 26 45 42 30 95 -34 119 l-25 10 26 12 c54 25 57 94
7 121 -13 7 -70 14 -128 16 -75 2 -98 0 -82 -7z m160 -22 c16 -16 15 -70 0
-91 -7 -9 -25 -19 -40 -23 l-28 -6 0 66 c0 66 0 66 28 66 15 0 33 -5 40 -12z
m1 -146 c31 -25 31 -79 1 -104 -13 -10 -33 -18 -44 -16 -19 3 -21 11 -24 71
-3 65 -2 67 21 67 14 0 35 -8 46 -18z"/>
<path d="M3266 3446 c17 -13 19 -27 19 -146 0 -105 -3 -133 -15 -141 -10 -7
20 -9 98 -7 106 3 115 5 133 27 24 30 24 72 0 102 -14 18 -31 23 -80 27 -35 3
-61 9 -62 16 -4 55 4 113 19 124 13 10 3 12 -58 12 -66 0 -72 -1 -54 -14z
m154 -166 c40 -40 16 -125 -34 -118 -18 3 -22 11 -26 66 -3 35 -3 65 -1 68 11
10 43 2 61 -16z"/>
<path d="M3536 3450 c29 -11 32 -29 30 -164 -1 -92 -4 -119 -16 -126 -10 -7 5
-9 50 -9 36 0 59 3 53 6 -10 3 -13 42 -13 144 0 135 1 140 23 149 16 6 -2 9
-63 9 -57 0 -78 -3 -64 -9z"/>
<path d="M3720 3452 c8 -3 18 -10 22 -16 12 -17 9 -245 -2 -267 -10 -18 -7
-19 52 -18 35 1 55 3 46 6 -10 2 -18 14 -18 25 0 22 90 177 103 178 12 0 8
-185 -5 -198 -9 -9 1 -12 48 -11 32 0 53 3 47 6 -10 3 -13 42 -13 144 0 135 1
140 23 149 16 6 0 9 -58 9 -58 0 -74 -3 -57 -9 12 -5 22 -17 22 -27 0 -16
-100 -183 -110 -183 -3 0 -4 45 -2 101 3 92 5 101 25 108 15 6 -5 9 -58 9 -44
-1 -73 -3 -65 -6z"/>
<path d="M4278 3440 c-43 -23 -75 -71 -83 -125 -8 -53 27 -122 75 -150 69 -39
190 -19 208 35 3 8 -9 2 -27 -13 -41 -34 -106 -37 -139 -7 -23 22 -42 78 -42
127 0 74 51 143 105 143 28 0 74 -29 89 -58 l15 -27 1 40 c0 34 -3 40 -22 42
-13 1 -50 5 -83 8 -48 4 -67 1 -97 -15z"/>
<path d="M4908 3450 c20 -8 22 -16 22 -78 0 -97 -22 -165 -65 -199 -30 -24
-35 -34 -34 -68 0 -31 2 -35 8 -20 19 46 49 60 135 63 95 3 123 -8 148 -58
l18 -35 0 48 c0 26 -4 47 -9 47 -5 0 -17 7 -25 16 -13 12 -16 40 -16 135 0
106 2 121 20 139 l20 20 -122 -1 c-84 0 -116 -3 -100 -9z m120 -147 l-3 -138
-54 -3 c-29 -2 -60 -1 -69 3 -13 5 -13 7 0 23 24 28 39 82 45 170 l6 82 39 0
39 0 -3 -137z"/>
<path d="M5297 3445 c12 -8 43 -54 69 -102 26 -49 54 -100 62 -115 15 -25 14
-29 -3 -48 -14 -15 -21 -17 -32 -9 -7 6 -13 18 -13 25 0 19 -39 18 -47 -1 -7
-20 24 -55 49 -55 32 0 64 42 123 161 32 63 66 124 78 137 l20 22 -49 -1 c-39
0 -45 -2 -26 -9 12 -5 22 -14 22 -20 0 -15 -70 -153 -75 -148 -3 2 -23 37 -45
78 -38 69 -40 75 -24 87 15 11 6 13 -56 13 -69 0 -73 -1 -53 -15z"/>
<path d="M5631 3410 l1 -45 9 33 c18 63 90 65 104 4 8 -40 -9 -80 -40 -88
l-25 -6 32 -17 c19 -9 35 -26 39 -41 6 -28 -6 -71 -24 -82 -20 -13 -61 -9 -85
8 -12 8 -22 11 -22 6 0 -20 72 -44 113 -39 102 14 135 112 51 152 l-37 17 30
13 c51 22 59 81 16 115 -23 18 -38 21 -95 18 l-68 -3 1 -45z"/>
<path d="M4590 3310 c-35 -78 -70 -145 -79 -150 -12 -7 -4 -9 28 -10 40 0 43
1 26 14 -16 12 -17 17 -6 45 13 30 16 31 70 31 56 0 57 0 70 -36 11 -30 11
-38 0 -45 -9 -5 10 -9 49 -9 l63 0 -20 28 c-11 15 -43 82 -73 150 -29 67 -55
122 -59 122 -3 0 -34 -63 -69 -140z m60 8 c29 -63 27 -68 -26 -68 -25 0 -44 4
-42 8 2 4 12 29 23 55 11 26 21 47 23 47 2 0 12 -19 22 -42z"/>
<path d="M1070 3395 c-13 -39 -5 -95 13 -95 21 0 77 39 77 53 0 16 -55 77 -69
77 -5 0 -15 -16 -21 -35z"/>
<path d="M728 3284 c-81 -176 -27 -334 130 -378 65 -18 132 -21 132 -6 0 6 -8
10 -17 10 -34 0 -127 51 -161 88 -18 20 -43 57 -53 81 -22 50 -38 146 -20 121
8 -12 11 -5 11 30 0 25 4 61 10 79 17 59 2 47 -32 -25z"/>
<path d="M1325 3223 c-36 -74 -187 -162 -279 -163 -24 0 -26 -2 -16 -14 6 -8
34 -22 61 -31 66 -22 106 -8 175 61 41 40 57 66 69 108 21 70 15 91 -10 39z"/>
<path d="M5181 3197 c-22 -27 10 -64 45 -50 23 9 14 57 -12 61 -11 2 -26 -3
-33 -11z"/>
<path d="M800 3160 c0 -41 44 -123 85 -159 57 -50 119 -74 206 -79 85 -5 114
5 163 57 35 37 33 37 -29 10 -65 -29 -145 -22 -229 20 -70 35 -150 100 -177
145 -19 31 -19 31 -19 6z"/>
<path d="M1775 3034 c-157 -16 -402 -73 -416 -95 -3 -6 -8 -10 -10 -8 -11 6
-46 -13 -46 -26 0 -12 4 -12 27 0 15 8 31 11 35 7 5 -4 5 -1 1 6 -5 8 0 12 13
12 11 0 22 4 25 9 3 5 15 11 26 14 11 3 18 1 14 -4 -3 -5 -12 -9 -21 -9 -9 0
-14 -3 -10 -6 3 -3 22 -1 43 6 27 9 33 15 23 21 -9 6 -1 7 21 3 41 -8 52 -14
24 -14 -10 0 -32 -7 -48 -15 -15 -8 -36 -15 -46 -15 -17 0 -80 -28 -80 -35 0
-3 12 0 28 6 127 50 281 71 561 76 633 13 1280 -109 1714 -322 59 -29 107 -52
107 -50 0 9 -167 108 -240 142 -271 127 -656 228 -1070 279 -119 15 -586 27
-675 18z m-128 -40 c-3 -3 -12 -4 -19 -1 -8 3 -5 6 6 6 11 1 17 -2 13 -5z
m-80 -20 c-3 -3 -12 -4 -19 -1 -8 3 -5 6 6 6 11 1 17 -2 13 -5z"/>
<path d="M1245 2931 c-10 -17 8 -39 26 -32 14 5 14 8 -1 24 -12 12 -20 15 -25
8z"/>
<path d="M1220 2870 c0 -5 5 -10 11 -10 5 0 7 5 4 10 -3 6 -8 10 -11 10 -2 0
-4 -4 -4 -10z"/>
<path d="M1294 2864 c-19 -15 -19 -15 1 -6 11 5 27 12 35 15 13 5 13 6 -1 6
-8 1 -24 -6 -35 -15z"/>
<path d="M875 2826 c-51 -16 -102 -42 -111 -58 -5 -7 -2 -9 8 -6 8 4 28 -2 44
-13 32 -21 73 -28 44 -8 -13 9 -13 10 0 6 8 -2 15 -9 15 -16 0 -17 137 -112
153 -106 7 3 10 0 7 -5 -16 -26 97 -40 130 -16 18 13 18 14 -3 31 -11 10 -19
22 -16 26 6 10 -64 64 -106 82 -89 38 -88 38 -37 32 55 -5 112 -32 162 -76
l35 -31 0 31 c0 17 -5 31 -11 31 -5 0 -7 5 -4 10 10 17 -58 77 -100 89 -53 14
-160 13 -210 -3z m-20 -45 c19 -8 19 -8 -2 -15 -30 -10 -71 2 -52 15 17 10 27
10 54 0z"/>
<path d="M818 2773 c7 -3 16 -2 19 1 4 3 -2 6 -13 5 -11 0 -14 -3 -6 -6z"/>
<path d="M1272 2767 c0 -78 -15 -148 -40 -187 -14 -23 -14 -24 1 -12 8 7 23
34 32 60 20 58 32 197 18 205 -7 4 -10 -20 -11 -66z"/>
<path d="M1372 2817 c-12 -7 -30 -24 -39 -37 -16 -24 -16 -24 0 -11 13 10 20
11 31 2 10 -8 21 -9 33 -3 27 14 93 22 93 11 0 -5 -8 -9 -18 -9 -22 0 -79 -27
-87 -41 -3 -5 0 -6 8 -3 8 3 18 1 22 -5 3 -6 16 -11 28 -12 12 0 16 -3 10 -6
-7 -2 -13 -9 -13 -14 0 -6 6 -7 13 -4 6 4 3 -1 -7 -9 -35 -28 -6 -17 64 25 38
23 88 47 111 53 l43 13 -60 29 c-46 23 -75 30 -134 32 -48 1 -83 -2 -98 -11z
m8 -32 c7 -8 8 -15 2 -15 -5 0 -15 7 -22 15 -7 8 -8 15 -2 15 5 0 15 -7 22
-15z m55 -55 c3 -6 -1 -7 -9 -4 -18 7 -21 14 -7 14 6 0 13 -4 16 -10z"/>
<path d="M1355 2709 c-4 -6 -5 -12 -2 -15 2 -3 7 2 10 11 7 17 1 20 -8 4z"/>
<path d="M1010 2581 c0 -6 9 -11 19 -11 10 0 19 -6 18 -12 -1 -40 4 -48 31
-47 23 2 24 2 5 6 -18 3 -23 11 -23 34 0 16 -4 29 -9 29 -5 0 -16 3 -25 6 -9
3 -16 1 -16 -5z"/>
</g>
</svg>
